<svg xmlns="http://www.w3.org/2000/svg" width="624" height="290" viewBox="0 0 624 290">
  <defs>
    <style>
      .cls-1 {
        font-size: 44.56px;
        font-family: MyriadPro-Regular, Myriad Pro;
      }

      .cls-1, .cls-34 {
        fill: #fff;
      }

      .cls-2 {
        letter-spacing: -0.03em;
      }

      .cls-3 {
        letter-spacing: -0.01em;
      }

      .cls-4 {
        letter-spacing: -0.01em;
      }

      .cls-5 {
        letter-spacing: -0.02em;
      }

      .cls-6 {
        letter-spacing: -0.02em;
      }

      .cls-7 {
        letter-spacing: -0.02em;
      }

      .cls-8 {
        letter-spacing: -0.02em;
      }

      .cls-9 {
        letter-spacing: -0.02em;
      }

      .cls-10 {
        letter-spacing: -0.02em;
      }

      .cls-11 {
        letter-spacing: -0.01em;
      }

      .cls-12 {
        letter-spacing: -0.02em;
      }

      .cls-13 {
        letter-spacing: -0.01em;
      }

      .cls-14 {
        letter-spacing: -0.01em;
      }

      .cls-15 {
        letter-spacing: -0.01em;
      }

      .cls-16 {
        letter-spacing: -0.02em;
      }

      .cls-17 {
        letter-spacing: -0.02em;
      }

      .cls-18 {
        letter-spacing: -0.02em;
      }

      .cls-19 {
        letter-spacing: 0em;
      }

      .cls-20 {
        letter-spacing: -0.01em;
      }

      .cls-21 {
        letter-spacing: -0.02em;
      }

      .cls-22 {
        letter-spacing: -0.01em;
      }

      .cls-23 {
        letter-spacing: -0.02em;
      }

      .cls-24 {
        letter-spacing: 0.01em;
      }

      .cls-25 {
        letter-spacing: -0.01em;
      }

      .cls-26 {
        letter-spacing: -0.03em;
      }

      .cls-27 {
        letter-spacing: 0em;
      }

      .cls-28 {
        letter-spacing: -0.02em;
      }

      .cls-29 {
        letter-spacing: -0.02em;
      }

      .cls-30 {
        letter-spacing: -0.02em;
      }

      .cls-31 {
        letter-spacing: 0.02em;
      }

      .cls-32, .cls-33 {
        fill: none;
        stroke-miterlimit: 10;
        stroke-width: 0.24px;
      }

      .cls-32 {
        stroke: #fd0;
      }

      .cls-33 {
        stroke: #161012;
      }

      .cls-35 {
        fill: #ef4135;
      }

      .cls-36 {
        fill: #261c02;
      }

      .cls-37 {
        fill: #fd0;
      }

      .cls-38 {
        fill: #231f20;
      }
    </style>
  </defs>
  <g id="tool-banner">
    <text class="cls-1" transform="translate(144.01 199.09)"><tspan class="cls-2">A</tspan><tspan class="cls-3" x="25.99" y="0">c</tspan><tspan class="cls-4" x="45.39" y="0">a</tspan><tspan class="cls-5" x="66.2" y="0">d</tspan><tspan class="cls-6" x="90.65" y="0">e</tspan><tspan class="cls-7" x="112.25" y="0">m</tspan><tspan class="cls-8" x="148.52" y="0">i</tspan><tspan x="158.12" y="0">c </tspan><tspan class="cls-9" x="187.53" y="0">U</tspan><tspan class="cls-10" x="215.29" y="0">r</tspan><tspan class="cls-11" x="228.9" y="0">o</tspan><tspan class="cls-12" x="252.78" y="0">l</tspan><tspan class="cls-13" x="262.61" y="0">o</tspan><tspan class="cls-14" x="286.65" y="0">g</tspan><tspan x="311.1" y="0">y </tspan><tspan class="cls-15" x="341.53" y="0">G</tspan><tspan class="cls-16" x="369.79" y="0">r</tspan><tspan class="cls-17" x="383.4" y="0">o</tspan><tspan class="cls-18" x="407.15" y="0">u</tspan><tspan class="cls-19" x="430.81" y="0">p</tspan><tspan class="cls-20" x="0" y="53.47">D</tspan><tspan class="cls-21" x="29.27" y="53.47">e</tspan><tspan class="cls-22" x="50.87" y="53.47">p</tspan><tspan class="cls-23" x="75.69" y="53.47">a</tspan><tspan class="cls-24" x="96.25" y="53.47">r</tspan><tspan class="cls-7" x="111.39" y="53.47">t</tspan><tspan class="cls-25" x="125.26" y="53.47">m</tspan><tspan class="cls-6" x="161.83" y="53.47">e</tspan><tspan class="cls-26" x="183.43" y="53.47">n</tspan><tspan class="cls-27" x="206.99" y="53.47">t </tspan><tspan class="cls-28" x="231.19" y="53.47">o</tspan><tspan x="254.82" y="53.47">f </tspan><tspan class="cls-29" x="277.28" y="53.47">S</tspan><tspan class="cls-18" x="298.14" y="53.47">u</tspan><tspan class="cls-30" x="321.8" y="53.47">r</tspan><tspan class="cls-5" x="335.46" y="53.47">g</tspan><tspan class="cls-21" x="359.68" y="53.47">e</tspan><tspan class="cls-31" x="381.28" y="53.47">r</tspan><tspan x="396.63" y="53.47">y</tspan></text>
    <g>
      <path class="cls-32" d="M125.51,96.63a55.19,55.19,0,0,1-2.3,14.17,35,35,0,0,1-5.39,10.69c-4.31,5.69-9.54,8.54-13,10.42-.3.16-2.35,1.21-12.24,6.14V96.63h32.94m-58.19,0V138c-9.87-4.92-11.93-6-12.23-6.13-3.47-1.88-8.7-4.73-13-10.42a35,35,0,0,1-5.4-10.69,54.77,54.77,0,0,1-2.29-14.17H67.32"/>
      <path class="cls-33" d="M125.57,37.61h-33V71.38h33V37.61Zm-58.25,0h-33V71.38h33V37.61Z"/>
      <path class="cls-34" d="M90.16,73.79V35.2H69.73V73.79H31.92V93.58h0v.64H69.73v47.72L79.94,147h0l10.21-5.08V94.22H128c0-.22,0-.43,0-.64V73.79Z"/>
      <polygon class="cls-35" points="69.73 73.79 69.73 35.2 31.92 35.2 31.92 73.79 69.73 73.79 69.73 73.79"/>
      <polygon class="cls-35" points="90.16 73.79 127.98 73.79 127.98 35.2 90.16 35.2 90.16 73.79 90.16 73.79"/>
      <path class="cls-35" d="M69.73,94.22H31.92c.22,27.66,14.41,35.67,22,39.81.78.42,8.85,4.45,15.8,7.91V94.22Z"/>
      <path class="cls-35" d="M90.16,94.22v47.72c7-3.46,15-7.49,15.8-7.91,7.61-4.14,21.8-12.15,22-39.81Z"/>
      <path class="cls-36" d="M103.15,84.3l.78-.93-1-1.17-1,1.17.78.93c0,.47,0,4.56-2.37,6a5.34,5.34,0,0,0,1.88,0,11.94,11.94,0,0,0,.7,2.28,12.32,12.32,0,0,0,.69-2.28,5.34,5.34,0,0,0,1.88,0c-2.41-1.46-2.38-5.55-2.37-6Z"/>
      <path class="cls-36" d="M109.31,77.35l.78-.93-1-1.17-1,1.17.78.93c0,.47,0,4.56-2.37,6a5.34,5.34,0,0,0,1.88-.05,11.94,11.94,0,0,0,.7,2.28,12.32,12.32,0,0,0,.69-2.28,5.34,5.34,0,0,0,1.88.05c-2.41-1.46-2.38-5.55-2.37-6Z"/>
      <path class="cls-36" d="M115.47,84.3l.78-.93-1-1.17-1,1.17.78.93c0,.47,0,4.56-2.37,6a5.34,5.34,0,0,0,1.88,0,12.32,12.32,0,0,0,.69,2.28,11.94,11.94,0,0,0,.7-2.28,5.34,5.34,0,0,0,1.88,0c-2.41-1.46-2.38-5.55-2.37-6Z"/>
      <path class="cls-36" d="M121.63,77.35l.78-.93-1-1.17-1,1.17.78.93c0,.47,0,4.56-2.37,6a5.34,5.34,0,0,0,1.88-.05,12.32,12.32,0,0,0,.69,2.28,11.94,11.94,0,0,0,.7-2.28,5.34,5.34,0,0,0,1.88.05c-2.41-1.46-2.38-5.55-2.37-6Z"/>
      <path class="cls-36" d="M97,77.35l.79-.93-1-1.17-1,1.17.78.93c0,.47,0,4.56-2.37,6a5.4,5.4,0,0,0,1.89-.05,11.45,11.45,0,0,0,.69,2.28,11.45,11.45,0,0,0,.69-2.28,5.4,5.4,0,0,0,1.89.05C97,81.91,97,77.82,97,77.35Z"/>
      <path class="cls-36" d="M44.84,84.3l.78-.93-1-1.17-1,1.17.78.93c0,.47,0,4.56-2.37,6a5.34,5.34,0,0,0,1.88,0,12.32,12.32,0,0,0,.69,2.28,11.94,11.94,0,0,0,.7-2.28,5.34,5.34,0,0,0,1.88,0c-2.41-1.46-2.38-5.55-2.37-6Z"/>
      <path class="cls-36" d="M51,77.35l.78-.93-1-1.17-1,1.17.78.93c0,.47,0,4.56-2.37,6a5.34,5.34,0,0,0,1.88-.05,12.32,12.32,0,0,0,.69,2.28,11.94,11.94,0,0,0,.7-2.28,5.34,5.34,0,0,0,1.88.05C51,81.91,51,77.82,51,77.35Z"/>
      <path class="cls-36" d="M57.16,84.3l.78-.93L57,82.2l-1,1.17.79.93c0,.47,0,4.56-2.38,6a5.4,5.4,0,0,0,1.89,0A11.45,11.45,0,0,0,57,92.55a11.45,11.45,0,0,0,.69-2.28,5.4,5.4,0,0,0,1.89,0c-2.42-1.46-2.38-5.55-2.37-6Z"/>
      <path class="cls-36" d="M63.31,77.35l.79-.93-1-1.17-1,1.17.78.93c0,.47.05,4.56-2.37,6a5.4,5.4,0,0,0,1.89-.05,11.45,11.45,0,0,0,.69,2.28,11.45,11.45,0,0,0,.69-2.28,5.4,5.4,0,0,0,1.89.05c-2.42-1.46-2.39-5.55-2.38-6Z"/>
      <path class="cls-36" d="M38.68,77.35l.78-.93-1-1.17-1,1.17.78.93c0,.47,0,4.56-2.37,6a5.34,5.34,0,0,0,1.88-.05,11.94,11.94,0,0,0,.7,2.28,12.32,12.32,0,0,0,.69-2.28,5.34,5.34,0,0,0,1.88.05c-2.41-1.46-2.38-5.55-2.37-6Z"/>
      <path class="cls-36" d="M80.2,100l.78-.92-1-1.18-1,1.18.78.92c0,.47,0,4.56-2.37,6a5.51,5.51,0,0,0,1.88-.06,12.14,12.14,0,0,0,.7,2.29,12.53,12.53,0,0,0,.69-2.29,5.58,5.58,0,0,0,1.89.06c-2.42-1.47-2.39-5.56-2.38-6Z"/>
      <path class="cls-36" d="M80.2,120.88,81,120l-1-1.18L79,120l.78.92c0,.47,0,4.56-2.37,6a5.51,5.51,0,0,0,1.88-.06,12.14,12.14,0,0,0,.7,2.29,12.53,12.53,0,0,0,.69-2.29,5.58,5.58,0,0,0,1.89.06c-2.42-1.47-2.39-5.56-2.38-6Z"/>
      <path class="cls-36" d="M85.91,110.43l.78-.93-1-1.17-1,1.17.78.93c0,.47,0,4.56-2.37,6a5.34,5.34,0,0,0,1.88,0,12.17,12.17,0,0,0,.7,2.28,12.56,12.56,0,0,0,.69-2.28,5.34,5.34,0,0,0,1.88,0c-2.41-1.46-2.38-5.55-2.37-6Z"/>
      <path class="cls-36" d="M74.43,110.43l.78-.93-1-1.17-1,1.17.78.93c0,.47,0,4.56-2.37,6a5.34,5.34,0,0,0,1.88,0,12.56,12.56,0,0,0,.69,2.28,12.17,12.17,0,0,0,.7-2.28,5.34,5.34,0,0,0,1.88,0c-2.41-1.46-2.38-5.55-2.37-6Z"/>
      <path class="cls-36" d="M85.91,131.34l.78-.93-1-1.17-1,1.17.78.93c0,.47,0,4.56-2.37,6a5.34,5.34,0,0,0,1.88-.05,12.17,12.17,0,0,0,.7,2.28,12.56,12.56,0,0,0,.69-2.28,5.34,5.34,0,0,0,1.88.05c-2.41-1.46-2.38-5.55-2.37-6Z"/>
      <path class="cls-36" d="M74.43,131.34l.78-.93-1-1.17-1,1.17.78.93c0,.47,0,4.56-2.37,6a5.34,5.34,0,0,0,1.88-.05,12.56,12.56,0,0,0,.69,2.28,12.17,12.17,0,0,0,.7-2.28,5.34,5.34,0,0,0,1.88.05c-2.41-1.46-2.38-5.55-2.37-6Z"/>
      <path class="cls-36" d="M80.2,52.36l.78-.93-1-1.18-1,1.18.78.93c0,.46,0,4.55-2.37,6a5.51,5.51,0,0,0,1.88-.06,12.14,12.14,0,0,0,.7,2.29,12.53,12.53,0,0,0,.69-2.29,5.58,5.58,0,0,0,1.89.06c-2.42-1.47-2.39-5.56-2.38-6Z"/>
      <path class="cls-36" d="M85.91,41.9l.78-.93-1-1.17-1,1.17.78.93c0,.47,0,4.56-2.37,6A5.34,5.34,0,0,0,85,47.87a11.94,11.94,0,0,0,.7,2.28,12.32,12.32,0,0,0,.69-2.28,5.34,5.34,0,0,0,1.88.05c-2.41-1.46-2.38-5.55-2.37-6Z"/>
      <path class="cls-36" d="M74.43,41.9l.78-.93-1-1.17-1,1.17.78.93c0,.47,0,4.56-2.37,6a5.34,5.34,0,0,0,1.88-.05,12.32,12.32,0,0,0,.69,2.28,11.94,11.94,0,0,0,.7-2.28,5.34,5.34,0,0,0,1.88.05c-2.41-1.46-2.38-5.55-2.37-6Z"/>
      <path class="cls-36" d="M85.91,62.81l.78-.93-1-1.17-1,1.17.78.93c0,.47,0,4.56-2.37,6a5.34,5.34,0,0,0,1.88,0,11.94,11.94,0,0,0,.7,2.28,12.32,12.32,0,0,0,.69-2.28,5.34,5.34,0,0,0,1.88,0c-2.41-1.46-2.38-5.55-2.37-6Z"/>
      <path class="cls-36" d="M74.43,62.81l.78-.93-1-1.17-1,1.17.78.93c0,.47,0,4.56-2.37,6a5.34,5.34,0,0,0,1.88,0,12.32,12.32,0,0,0,.69,2.28,11.94,11.94,0,0,0,.7-2.28,5.34,5.34,0,0,0,1.88,0c-2.41-1.46-2.38-5.55-2.37-6Z"/>
      <path class="cls-36" d="M61.57,54.25l.13.48c.11.43.2.78.25,1,.41,1.83.75,2.31,1.64,2.31a1,1,0,0,0,1-.71l.2-.64a.29.29,0,0,1,.3-.23c.35,0,.51.36.53,1.16a14.56,14.56,0,0,0,.23,1.57,8.54,8.54,0,0,1,.12,1.4,2.25,2.25,0,0,1-.19,1,13.57,13.57,0,0,1,.19,2,4,4,0,0,1-.38,1.91,4.12,4.12,0,0,1,.16,1.21,5.69,5.69,0,0,1-.1,1.07,8,8,0,0,0-.17,1.1,1.36,1.36,0,0,0,.08.44,1.46,1.46,0,0,1,.09.38c0,.09,0,.16-.09.16L65,69.6l-.71-.38a3.44,3.44,0,0,1-.74-.58c-.62.56-.81.65-2.43,1.09a2.37,2.37,0,0,0-.71.29,1,1,0,0,1-.42.22c-.28,0-.41-.44-.41-1.35a7.67,7.67,0,0,1,.19-1.79,3.68,3.68,0,0,0-1.14-.28l-.49.06H58c-.1,0-.18-.14-.18-.31a2.52,2.52,0,0,1,.2-.69l.32-.77a2.75,2.75,0,0,1,.77-.93,2.14,2.14,0,0,1,.83-.49l1.16-.22c.68-.13,1.09-.5,1.09-1s-.31-.77-1-1L59.8,61a8.05,8.05,0,0,1-1.25-.6c-.76-.46-.89-.52-1.07-.52s-.44.21-.44.57a.9.9,0,0,0,.9,1,.87.87,0,0,0,.32-.06,1,1,0,0,1,.34-.1c.14,0,.22.08.22.24v.14l-.06.55a4.5,4.5,0,0,1-1,1.92l-.29.39A4.39,4.39,0,0,1,55.7,67a2.18,2.18,0,0,0-.35.26,3.92,3.92,0,0,0-.26.44,4.75,4.75,0,0,1-.64.77,5.94,5.94,0,0,1-.8.74,3,3,0,0,0-.64.58l-.32.54a.31.31,0,0,1-.26.16c-.28,0-.54-.29-.7-.8s-.23-.48-.47-.48a2.27,2.27,0,0,0-.56.1l-.45.06H49.1a5.22,5.22,0,0,0-1.76.32.87.87,0,0,1-.33.1c-.08,0-.13,0-.22-.19a.54.54,0,0,1-.07-.26,6,6,0,0,1,1-2.56,3.36,3.36,0,0,1,.86-1,1.43,1.43,0,0,0-.89-1.09l-.55-.16a.18.18,0,0,1-.13-.15c0-.17.26-.4.74-.65a4,4,0,0,1,1.76-.51,2.65,2.65,0,0,1,1.64.67c.87.68,1.1.8,1.53.8A1.38,1.38,0,0,0,54,63.42a3,3,0,0,0-.84-1.7A3.93,3.93,0,0,1,52,59.11a3.21,3.21,0,0,1,.36-1.49l.32-.48a.7.7,0,0,0,.1-.31c0-.22-.24-.37-.58-.37a5.44,5.44,0,0,0-2.25.84c-.38.23-.64.51-.64.68a.31.31,0,0,0,.13.25l.35.22a.17.17,0,0,1,.07.13.54.54,0,0,1-.13.25l-.64.84a10.92,10.92,0,0,1-1.35,1.41,2.29,2.29,0,0,0-.32.32s-.09.16-.25.48a4.94,4.94,0,0,1-1.42,1.44,2.23,2.23,0,0,0-.44.36,2.2,2.2,0,0,0-.26.44,6.14,6.14,0,0,1-.42.68,7,7,0,0,1-.77,1l-.9.9a5.38,5.38,0,0,0-.89,2c-.23.71-.43,1.13-.55,1.13s-.14-.07-.25-.2c-.64-.72-1.18-1.15-1.47-1.15a.82.82,0,0,0-.36.16,2.35,2.35,0,0,1-.87.32l-1.18.22a2.48,2.48,0,0,0-1.76,1c-.13.14-.23.22-.28.22s-.17-.16-.17-.37l0-.3.16-.87A7.13,7.13,0,0,1,36,66.72l.54-1a1.12,1.12,0,0,0,.17-.52A1.76,1.76,0,0,0,35,63.7c-.24,0-.33-.07-.33-.2s.26-.49.62-.76a4,4,0,0,1,2-.83,4.64,4.64,0,0,1,1.44.38l.7.29a1.92,1.92,0,0,0,.72.17c.74,0,1.47-.68,2.36-2.21a3.4,3.4,0,0,0,.57-1.65c0-.81-.38-1.3-1-1.3a2.08,2.08,0,0,0-1.39.6,1.48,1.48,0,0,0-.49,1v.44c0,.3-.09.47-.27.47s-.75-.44-2-2a3.77,3.77,0,0,1-1.19-2.76c-1.09-1.38-1.36-2-1.36-3l.05-.66a3,3,0,0,1-1-2.23,1.62,1.62,0,0,1,.23-.84,3.37,3.37,0,0,1-.61-1.25l-.16-.68a3.43,3.43,0,0,0-.51-1.18c-.3-.42-.32-.48-.32-.62,0-.37.25-.52,1.38-.8a4.72,4.72,0,0,1-.07-.71,3.69,3.69,0,0,1,.1-.76l.22-1.19a6.62,6.62,0,0,0,.14-1,3.38,3.38,0,0,0-.24-1,3.35,3.35,0,0,0-.28-.73,1.28,1.28,0,0,1-.2-.44c0-.12.08-.18.22-.18a5.35,5.35,0,0,1,2,1.23c1.84,1.52,2.22,2.13,2.47,4,0,.14,0,.36.09.64a2.87,2.87,0,0,1,1.35,2.27,4,4,0,0,1-.64,2.06l-.65,1a2,2,0,0,0-.28,1.06,3.65,3.65,0,0,0,.61,1.92c.49.87.91,1.22,1.42,1.22.85,0,1.59-1.47,1.59-3.14v-.8a8.41,8.41,0,0,1,.07-1.06c.06-.5.09-.81.1-.93l0-.77v-.51a.92.92,0,0,0-.33-.61l-.7-.77A5,5,0,0,1,40,41.92a1.63,1.63,0,0,1,1.63-1.7,2.36,2.36,0,0,1,.68.12v-.22c0-1.41.29-2.46.68-2.46l.15.05.58.52.71.45.19.19c0-.4,0-.44.42-.9.09-.11.24-.31.45-.61s.27-.4.31-.48l.17-.29c.08-.16.17-.24.26-.24s.16.12.28.47.13.28.68.77a2.11,2.11,0,0,1,.38.41,5,5,0,0,1,.26.64l.09.26a2,2,0,0,1,.64-.58L49,38a1.23,1.23,0,0,1,.36-.16s.1.08.16.19a4.6,4.6,0,0,0,.25.49,2.46,2.46,0,0,1,.46,1.16v.7a1.79,1.79,0,0,1,1.45,2,4.5,4.5,0,0,1-1.26,2.74c-.55.66-.61.79-.61,1.24,0,2.37,1.65,3.75,4.56,3.79l2.14,0a10.33,10.33,0,0,1,3.5.58,8.23,8.23,0,0,0,2.4.61.77.77,0,0,0,.42-.13A.38.38,0,0,0,63,51c0-.45-.79-.81-3.36-1.55-5.29-1.49-7.54-3.62-7.54-7.12a4.92,4.92,0,0,1,5.16-4.8,11.3,11.3,0,0,1,3.21.54l1.31.49a2.2,2.2,0,0,0,.69.13c.45,0,.67-.37.69-1.13,0-.4.1-.54.36-.54s1,.46,1.47,1.18a4.24,4.24,0,0,1,.86,2.11A1.83,1.83,0,0,1,64.74,42,3.14,3.14,0,0,1,62,43.58c-.93,0-2.25-.53-4.42-1.76A3.2,3.2,0,0,0,56,41.24a.83.83,0,0,0-.93.83c0,.46.36.76,1.29,1.09a4.58,4.58,0,0,1,2.28,1.25A6.57,6.57,0,0,1,62,45.76c2.81.89,4.55,2.81,4.55,5a3.45,3.45,0,0,1-3.46,3.68,6.12,6.12,0,0,1-1.51-.2"/>
      <path class="cls-37" d="M64.74,68.29a3.35,3.35,0,0,1-.12-.77l0-.26.1-.51,0-.41a1.63,1.63,0,0,0-.22-1l-.39-.51a2.91,2.91,0,0,1-.32-.61,1,1,0,0,1-.06-.27.22.22,0,0,1,.23-.24c.09,0,.12,0,.41.19a.68.68,0,0,0,.31.11c.19,0,.3-.31.3-.85a2,2,0,0,0-.19-1.12l-.48-.54-.42-.36a.41.41,0,0,1-.17-.27.24.24,0,0,1,.26-.24,2.74,2.74,0,0,1,.71.16l.15,0c.13,0,.18-.07.18-.26v-.12L65,59.8l-.19-.71c-.06-.23-.09-.26-.24-.26h-.08l-.8.15-.13,0A2.85,2.85,0,0,1,61,57l-.64-2.08a4.26,4.26,0,0,0-1.54-2,1.47,1.47,0,0,0-.64-.35l-.58-.07a.17.17,0,0,1-.17-.16c0-.13.12-.19.4-.19l1.06.1a8.12,8.12,0,0,1,1.73.44,6.82,6.82,0,0,0,2.15.48,2.25,2.25,0,0,0,2.56-2.32A4.08,4.08,0,0,0,64,48.06a2.9,2.9,0,0,0-1.06-.7.16.16,0,0,0-.16.17l0,.41v0c0,.16-.09.29-.22.29s-.34-.21-.55-.64a3.08,3.08,0,0,0-2.56-2c-.17,0-.29.07-.29.17a1.6,1.6,0,0,0,.16.46l.25.58a1.1,1.1,0,0,1,.11.29s-.06.07-.14.07a.9.9,0,0,1-.54-.3l-.48-.51-.42-.64a2.79,2.79,0,0,0-1.31-1.12l-.77-.42a.81.81,0,0,0-.4-.13c-.12,0-.17,0-.17.17a.64.64,0,0,0,.12.34,1.7,1.7,0,0,1,.33.65.18.18,0,0,1-.17.18c-.24,0-.76-.5-1.22-1.18a3.23,3.23,0,0,1-.58-1.8A2.32,2.32,0,0,1,56.37,40a5,5,0,0,1,2.41.8l1.51.93a3.89,3.89,0,0,0,1.75.58,4.38,4.38,0,0,0,.94-.16,1.45,1.45,0,0,0,.38-.16c.09-.06.15-.13.15-.18a.14.14,0,0,0-.08-.14l-.2-.07-.7-.13a3.82,3.82,0,0,1-.86-.32,13.38,13.38,0,0,1-1.61-.8,5.73,5.73,0,0,0-1.06-.6c-.26-.09-.42-.21-.42-.31s.05-.14.15-.14a.7.7,0,0,1,.34.12,2.4,2.4,0,0,0,1.18.45l1.38.48a8.48,8.48,0,0,0,2.13.45,1.06,1.06,0,0,0,1.06-1.06,2.8,2.8,0,0,0-.56-1.4c-.07-.11-.15-.17-.22-.17s-.19.09-.19.26l0,.26.05.38a.68.68,0,0,1-.63.74,1.67,1.67,0,0,1-.51-.1l-2.08-.67a10.82,10.82,0,0,0-3.43-.74,4.13,4.13,0,0,0-4.39,4c0,2.55,1.79,4.19,6.22,5.71s5,1.86,5,3a1.35,1.35,0,0,1-1.38,1.22,4.22,4.22,0,0,1-.77-.06l-2.18-.52a16.48,16.48,0,0,0-4-.45c-3.14,0-4.89.55-6.4,2a1,1,0,0,1-.93.43H48.2l-.45,0h0a1,1,0,0,0-.91.58l-.54.86a.47.47,0,0,1-.37.19c-.29,0-.46-.21-.79-1a2.52,2.52,0,0,0-.67-1l-.64-.58a.37.37,0,0,1-.16-.24.53.53,0,0,1,.13-.3,2.65,2.65,0,0,0,.45-.84c.08-.43.09-.45.27-.45s.25.2.27.93a2.21,2.21,0,0,0,.26.87l.35.77a.31.31,0,0,0,.29.16c.33,0,.75-.78.86-1.6s.17-.9.31-.9a.17.17,0,0,1,.14.06s.13.24.29.58a1.77,1.77,0,0,0,.8.71h0c.26,0,.35-.17.41-.78l0-.31-.06-.46-.05-.31c0-.2.08-.33.19-.33a.39.39,0,0,1,.24.13l.32.32a.91.91,0,0,0,.64.32c.26,0,.43-.1.43-.28a1.64,1.64,0,0,0-.3-.74l-.22-.42c-.26-.48-.46-.67-.7-.67l-.33,0-.38.16a.73.73,0,0,1-.25.07c-.06,0-.1,0-.1-.12a2.88,2.88,0,0,1,.54-1.31A6.33,6.33,0,0,0,49,45.21c.11-1.67.34-2.76.57-2.76s.22.14.22.5l0,.44v.3c0,.3.07.54.15.54.27,0,.6-.4.85-1.07a2,2,0,0,0,.17-.65l0-.15-.64-1.19L49.61,41a.32.32,0,0,1-.22-.14v-.79l-.07-.38-.13-.32L49,39a3.6,3.6,0,0,0-1.29,1c-.25.33-.39.46-.51.46a.17.17,0,0,1-.16-.17,2.62,2.62,0,0,1,.1-.52l0-.18a2.19,2.19,0,0,0-1.11-1.8L45.9,38l-.23.32-.38.45a1.73,1.73,0,0,0-.33.64,1.35,1.35,0,0,0-.06.37v.16c0,.27,0,.34-.14.34l-.08,0-.23-.31-.35-.39-.55-.35L43.27,39l-.13.29a1.7,1.7,0,0,0-.16.52l0,.51,0,.54v.1c0,.28-.07.38-.24.38a1,1,0,0,1-.38-.16.94.94,0,0,0-.46-.13.8.8,0,0,0-.82.89,2.8,2.8,0,0,0,.52,1.68l.41.54c.12.15.33.27.34.2l.08-.68-.1-.54,0-.25c0-.2.07-.33.19-.33s.29.2.41.74l.25,1.18L43.36,46a5.64,5.64,0,0,0,.39,1.28,6.06,6.06,0,0,0,.54,1.12c.36.46.4.52.4.62a.15.15,0,0,1-.14.15.71.71,0,0,1-.29-.09,1.12,1.12,0,0,0-.39-.13l-.25,0c-.51,0-.62.44-.62,2.58a13,13,0,0,0,.62,3.93l.67,1.7a2.11,2.11,0,0,1,.16.8c0,2.34-3.1,6-6.5,7.7a2.63,2.63,0,0,0-1.77,2.62l0,.42a4.34,4.34,0,0,1,1.09-.45c1-.25,1.14-.37,1.28-.83l.13-.42c.05-.16.13-.21.87-.61a1.33,1.33,0,0,0,.51-.41c.16-.27.3-.42.38-.42s.12,0,.12.11l0,.11-.32.92,0,.22a1.75,1.75,0,0,0,1.07,1.59,3,3,0,0,1,.41-1.35l.58-.9a2.42,2.42,0,0,0,.3-1.37,5.87,5.87,0,0,0-.08-1l0-.25a.23.23,0,0,1,.23-.26c.11,0,.2,0,.21.1L43,64a.3.3,0,0,0,.31.23c.31,0,.71-.4,1.13-1.12a1.66,1.66,0,0,0,.24-.85l0-.44-.09-.47v-.1c0-.21.12-.35.28-.35s.13,0,.14.06l.19.74c.07.24.24.42.42.42s.59-.38.8-.81A2.75,2.75,0,0,0,46.63,60c0-.68.07-.88.32-.88.08,0,.15,0,.16.08l.13.42c0,.15.14.25.23.25s.49-.39.73-.8a.56.56,0,0,0,.1-.3c0-.14-.09-.27-.29-.44s-.35-.32-.35-.74A1.9,1.9,0,0,1,48,56.46c.16-.27.29-.53.42-.77.4-.79.55-1,.69-1a.27.27,0,0,1,.24.28.54.54,0,0,1-.07.26,1,1,0,0,0-.13.38.24.24,0,0,0,.24.24,1.19,1.19,0,0,0,.56-.2c.09,0,.39-.16.9-.35l1.06-.38a1.72,1.72,0,0,1,.64-.1,2.78,2.78,0,0,1,.58.06,4,4,0,0,0,.74.13.55.55,0,0,0,.54-.53,2,2,0,0,0-.51-1,.58.58,0,0,1-.17-.3l0-.12A.21.21,0,0,1,54,53c.22,0,.72.54,1.18,1.25,2.75,4.35,3.74,5.4,5.61,6s2.37,1,2.37,2.14a4.17,4.17,0,0,1-1,2.28c-1.39,2-1.73,2.74-1.73,4v.24l.36-.16a2.71,2.71,0,0,1,.51-.23l.8-.16a.68.68,0,0,0,.45-.65v-.08l-.1-.71v-.09a1,1,0,0,1,.3-.68.28.28,0,0,1,.17-.07.34.34,0,0,1,.25.2l.51,1.09a1.87,1.87,0,0,0,1.12,1"/>
      <path class="cls-37" d="M38.9,45.05c-.23,0-.35.2-.38.64l-.06.61a4.66,4.66,0,0,0-.08.78c0,.46.14.8.32.8s.53-.4.69-.84a2.35,2.35,0,0,0,.14-.75,2.23,2.23,0,0,0-.14-.72c-.12-.33-.3-.52-.49-.52"/>
      <path class="cls-37" d="M36.25,40.37l.45.45a5.06,5.06,0,0,1,1.09,3.67c0,.38,0,.63-.1,1.65,0,.54-.07,1-.07,1.32,0,4,1.3,7,3,7,.53,0,.88-.25,1.39-1a.46.46,0,0,1,.29-.23c.1,0,.15.08.15.26l.07.71.06.6.07.68.09.61v.07a.28.28,0,0,1-.23.31l-.58.1a2.32,2.32,0,0,0-.89.35,2.55,2.55,0,0,0-.84.64l-.35.74a.24.24,0,0,1-.2.16c-.19,0-.48-.32-.83-.9a3.09,3.09,0,0,1-.47-1.05c0-.1.08-.14.28-.14h.07l.41,0,.26,0,.29,0a.22.22,0,0,0,.19-.22.2.2,0,0,0-.13-.19l-1.44-.61a2.24,2.24,0,0,1-1.09-1.06,4.24,4.24,0,0,1-.58-1.44c0-.2.1-.33.26-.33a.61.61,0,0,1,.22.07,1.33,1.33,0,0,0,.41.13.23.23,0,0,0,.24-.2c0-.09-.12-.24-.26-.35a3.83,3.83,0,0,1-1.9-2.74c0-.24.06-.36.19-.36L36,49l.42.06h0a.25.25,0,0,0,.27-.25c0-.09-.1-.21-.26-.29L36,48.26a1.38,1.38,0,0,1-.45-.45l-.54-1-.45-.86-.29-.55a2.55,2.55,0,0,0-.2-.25,2,2,0,0,1,1-.26c.44,0,.72.28,1,1.06.19.49.4.82.52.82s.09-.11.09-.38a3.47,3.47,0,0,0-.14-1,2.24,2.24,0,0,1-.09-.71l-.06-.45L36,44.06a1,1,0,0,1-.29-.32,1.35,1.35,0,0,1-.25-.73,2.42,2.42,0,0,1,.09-.58,8.64,8.64,0,0,0,.42-2.1v-.28l.29.32Z"/>
      <path class="cls-37" d="M40.09,63.48a3.43,3.43,0,0,1-.93-.22L38.55,63a3.19,3.19,0,0,0-1.22-.32,1.94,1.94,0,0,0-1.34.55l.29.22.64.45.61.48a.88.88,0,0,0,.53.19,3,3,0,0,0,2-1.09"/>
      <path class="cls-37" d="M52.43,69.32a1.83,1.83,0,0,1,.65-.84c.89-.77,1.31-1.34,1.31-1.79V66c0-.41.07-.54.28-.54a.2.2,0,0,1,.2.09l.16.39a.27.27,0,0,0,.27.14.76.76,0,0,0,.47-.37l.32-.45a1,1,0,0,0,.23-.62,1.16,1.16,0,0,0-.07-.37L56,63.74a1.68,1.68,0,0,1-.13-.5c0-.21.11-.34.29-.34a.31.31,0,0,1,.23.1l.25.32a.33.33,0,0,0,.25.11.44.44,0,0,0,.33-.27l.26-.51a.89.89,0,0,0,.1-.29c0-.1-.11-.2-.29-.29l-.42-.19a2.32,2.32,0,0,1-1-2.06.94.94,0,0,1,.07-.34l.22-.55a1.22,1.22,0,0,0,.1-.51,1.87,1.87,0,0,0-.32-1,6.32,6.32,0,0,1-.42-.67c-.19-.51-.28-.65-.44-.65l-.16,0-.23.13-.35.19L54,57l-.45.22A1.5,1.5,0,0,0,53,58.38c0,.83.1,1.06,1.19,3a4,4,0,0,1,.66,1.83q0,2-3.54,2.81l-1.47.35a2.55,2.55,0,0,0-2,2.28,2.42,2.42,0,0,1,1.42-.26h.55c.42,0,.48,0,.75-.41a2.44,2.44,0,0,1,1.06-.9l.52-.22.41-.23.13,0c.12,0,.18,0,.18.13a1,1,0,0,1-.31.54,1.69,1.69,0,0,0-.51,1.24,1.25,1.25,0,0,0,.35.85"/>
      <path class="cls-37" d="M48.39,64.35a3.71,3.71,0,0,1,1,.86c.3.42.35.45.65.45a2.23,2.23,0,0,0,.47-.06l.28-.07c.53-.1.71-.18.71-.31a.38.38,0,0,0-.16-.26L51,64.64l-.35-.32A1.73,1.73,0,0,0,49.55,64a2,2,0,0,0-1.16.39"/>
      <path class="cls-37" d="M58.78,66.08l.19,0,.29,0,.29,0h.14a1.41,1.41,0,0,0,1.4-1.24c0-.22-.2-.35-.57-.35-.86,0-1.4.5-1.74,1.61"/>
      <path class="cls-36" d="M46.83,43.93c0,.3.18.55.34.55s.29-.36.63-.92a5.63,5.63,0,0,0,.88-1.93c0-.14-.06-.24-.16-.24h0l-.35.32a2.86,2.86,0,0,1-1.09.57c-.36.14-.5.29-.5.55l.05.26.16.45.07.38Z"/>
      <path class="cls-36" d="M44.87,42.26l.54.29a.37.37,0,0,1,.23.31l0,.2a2.46,2.46,0,0,0,0,.69.54.54,0,0,1-.63.57c-.11,0-.05-.07-.3-.36l-.71-.8a2.91,2.91,0,0,1-.48-1.44v-.08c0-.18.06-.24.2-.24a.71.71,0,0,1,.35.16l.87.7Z"/>
      <path class="cls-36" d="M46.12,45.63h-.18l-.37,0-.38-.23a1,1,0,0,0-.46-.13c-.29,0-.48.16-.48.41a4.47,4.47,0,0,0,.43,1.42l.41,1c.37.9.72,1.28,1.2,1.28s.47-.41.76-1.12c.64-1.61,1-1.85,1-2.42,0-.39-.08-.49-.44-.49l-.3-.08-.51.33-.67,0Z"/>
      <path class="cls-37" d="M46.09,46.53h-.42a.19.19,0,0,0-.16.09l-.06.16.16.77.12.67c.07.37.21.52.49.52s.51-.22.54-.61l.06-.71c0-.46.07-.71.07-.73a.26.26,0,0,0-.1-.19.2.2,0,0,0-.16-.07h0l-.51.1Z"/>
      <path class="cls-36" d="M121.37,54.25l.13.48c.12.43.2.78.26,1,.4,1.83.74,2.31,1.63,2.31a1.06,1.06,0,0,0,1.06-.71l.2-.64a.29.29,0,0,1,.3-.23c.35,0,.53.38.56,1.16,0,.3.08.82.19,1.57a9.08,9.08,0,0,1,.13,1.48,2.23,2.23,0,0,1-.19.92l.06.39a6.4,6.4,0,0,1,.14,1.17,3.88,3.88,0,0,1-.39,2.32,4.13,4.13,0,0,1,.16,1.15,9.52,9.52,0,0,1-.1,1.13l-.13,1,0,.58a1.57,1.57,0,0,1,.13.38.15.15,0,0,1-.13.16l-.64-.26-.7-.38a3.44,3.44,0,0,1-.74-.58,2.58,2.58,0,0,1-1.44.8,6.64,6.64,0,0,0-1.67.58,1,1,0,0,1-.44.22c-.25,0-.42-.48-.42-1.18a5.4,5.4,0,0,1,.22-2,4,4,0,0,0-1.17-.28,2.2,2.2,0,0,0-.46.06h-.15c-.09,0-.14-.11-.14-.3a3.9,3.9,0,0,1,.51-1.47,2.94,2.94,0,0,1,1.57-1.42l1.16-.22c.68-.13,1.09-.5,1.09-1s-.3-.77-1-1L119.64,61a7.13,7.13,0,0,1-1.28-.6l-.7-.42a.81.81,0,0,0-.35-.1c-.29,0-.46.21-.46.55a1,1,0,0,0,.93,1,.92.92,0,0,0,.33-.06.8.8,0,0,1,.29-.1c.15,0,.25.14.25.34a4.05,4.05,0,0,1-.74,2l-.38.48-.29.39A4.33,4.33,0,0,1,115.51,67a1.54,1.54,0,0,0-.35.26,3.92,3.92,0,0,0-.26.44,5.4,5.4,0,0,1-.64.77,5.94,5.94,0,0,1-.8.74,2.77,2.77,0,0,0-.64.58l-.32.54a.3.3,0,0,1-.25.17c-.29,0-.55-.3-.72-.81s-.22-.48-.46-.48a2.27,2.27,0,0,0-.56.1l-.45.06h-1.12a5.37,5.37,0,0,0-1.8.32.79.79,0,0,1-.33.1c-.16,0-.25-.16-.25-.48a6,6,0,0,1,1.8-3.56,1.38,1.38,0,0,0-.86-1.09l-.58-.16a.18.18,0,0,1-.1-.15c0-.21.23-.41.74-.65a3.41,3.41,0,0,1,1.69-.51,2.57,2.57,0,0,1,1.68.67c.86.68,1.1.8,1.52.8a1.38,1.38,0,0,0,1.34-1.28,3,3,0,0,0-.84-1.7A4.1,4.1,0,0,1,111.79,59a3,3,0,0,1,.68-1.85.9.9,0,0,0,.13-.35c0-.17-.29-.33-.62-.33a3.33,3.33,0,0,0-1.34.39c-1,.44-1.54.85-1.54,1.1a.37.37,0,0,0,.16.28l.32.22a.17.17,0,0,1,.07.13.5.5,0,0,1-.13.25c-.07.08-.28.35-.65.84a7.29,7.29,0,0,1-1.34,1.41,1.16,1.16,0,0,0-.32.32l-.26.48a5.27,5.27,0,0,1-1.38,1.44,2.33,2.33,0,0,0-.44.36,2.17,2.17,0,0,0-.29.44,9.88,9.88,0,0,1-1.19,1.67l-.86.9a6.37,6.37,0,0,0-.93,2c-.27.78-.44,1.13-.55,1.13s-.15-.07-.25-.2c-.63-.71-1.19-1.15-1.46-1.15a1.06,1.06,0,0,0-.37.16,2.57,2.57,0,0,1-.87.32l-1.15.22a2.48,2.48,0,0,0-1.8,1c-.11.14-.2.22-.25.22S95,70.17,95,70l0-.28s.07-.32.17-.87a7,7,0,0,1,.64-2.08l.58-1a1.15,1.15,0,0,0,.16-.52c0-.74-.69-1.34-1.74-1.51-.21,0-.32-.11-.32-.23s.25-.43.65-.73a3.67,3.67,0,0,1,2-.83,4.44,4.44,0,0,1,1.47.38l.7.29a1.91,1.91,0,0,0,.71.17c.75,0,1.47-.68,2.37-2.21a3.4,3.4,0,0,0,.57-1.65c0-.82-.37-1.3-1-1.3a1.93,1.93,0,0,0-1.36.6,1.56,1.56,0,0,0-.53,1l0,.32v.17c0,.26-.09.38-.28.38s-.52-.24-1.08-.9l-.89-1.06a3.63,3.63,0,0,1-1.22-2.76c-1.09-1.38-1.36-2.15-1.36-3l0-.66a2.81,2.81,0,0,1-.93-2.22,1.42,1.42,0,0,1,.2-.85,3.22,3.22,0,0,1-.61-1.25l-.16-.68a3.26,3.26,0,0,0-.52-1.18c-.28-.42-.32-.48-.32-.6,0-.33.32-.55,1.13-.75l.25-.07a6.06,6.06,0,0,1-.06-.71,4.26,4.26,0,0,1,.09-.76l.23-1.19a7,7,0,0,0,.13-1.05,3.06,3.06,0,0,0-.2-1,2.29,2.29,0,0,0-.32-.73.93.93,0,0,1-.19-.43c0-.11.11-.19.26-.19a.82.82,0,0,1,.32.1,12.68,12.68,0,0,1,3.11,2.47c.72.81,1,1.48,1.12,3.27a2.74,2.74,0,0,1,1.35,2.43,3.37,3.37,0,0,1-.65,1.9l-.64,1a2.14,2.14,0,0,0-.29,1.09,3.76,3.76,0,0,0,.61,1.89c.48.85.91,1.22,1.42,1.22.84,0,1.6-1.45,1.6-3.05V49.22l.09-.77.07-.93.06-.77,0-.43c0-.31-.07-.4-1.06-1.46a4.8,4.8,0,0,1-1.6-3.06,1.62,1.62,0,0,1,1.63-1.58,2.42,2.42,0,0,1,.68.12V40l0-.68.19-.83c.16-.66.23-.79.46-.79l.15.05.58.52.71.45.19.19a1.31,1.31,0,0,1,.41-.9,7.29,7.29,0,0,0,.45-.61l.32-.48.2-.29c.13-.19.18-.24.26-.24s.15.11.25.47a.84.84,0,0,0,.29.41l.42.36a2.31,2.31,0,0,1,.7,1.31,1.88,1.88,0,0,1,.64-.58l.51-.29a1.82,1.82,0,0,1,.34-.16s.09.08.15.19a3.23,3.23,0,0,0,.25.49c.42.66.45.75.45,1.2v.66a1.74,1.74,0,0,1,1.44,2,4.35,4.35,0,0,1-1.22,2.75c-.54.66-.64.86-.64,1.36,0,2.26,1.71,3.63,4.59,3.67l2.11,0a10.15,10.15,0,0,1,3.49.58,8.37,8.37,0,0,0,2.42.61c.33,0,.6-.18.6-.4,0-.46-.78-.82-3.37-1.56-5.28-1.49-7.53-3.62-7.53-7.12a4.93,4.93,0,0,1,5.18-4.8,11.16,11.16,0,0,1,3.19.54l1.31.49a2.2,2.2,0,0,0,.69.13c.45,0,.62-.28.69-1.13,0-.38.15-.54.39-.54s1,.53,1.47,1.18a4.35,4.35,0,0,1,.83,2.15A1.83,1.83,0,0,1,124.55,42a3.16,3.16,0,0,1-2.8,1.6,10.76,10.76,0,0,1-4.41-1.76,2.92,2.92,0,0,0-1.54-.58.83.83,0,0,0-.94.83c0,.47.34.75,1.29,1.09,1.52.54,1.84.72,2.28,1.25a6.5,6.5,0,0,1,3.36,1.35c2.93.94,4.56,2.74,4.56,5.06a3.4,3.4,0,0,1-3.42,3.62,6.22,6.22,0,0,1-1.56-.19"/>
      <path class="cls-37" d="M124.55,68.29a2,2,0,0,1-.1-.59l0-.44a10,10,0,0,0,.1-1.24,1,1,0,0,0-.23-.65l-.39-.51a1.42,1.42,0,0,1-.35-.87c0-.19,0-.25.17-.25l.15,0,.29.16a.76.76,0,0,0,.32.11c.19,0,.29-.3.29-.9a1.73,1.73,0,0,0-.64-1.61l-.45-.36a.33.33,0,0,1-.13-.26.23.23,0,0,1,.23-.25,1.34,1.34,0,0,1,.38.07l.35.09.14,0c.11,0,.16-.08.16-.27v-.11l-.1-.67c-.1-.7-.21-1-.42-1h-.06l-.83.15-.14,0a3,3,0,0,1-2.49-2l-.61-2.08a4.2,4.2,0,0,0-1.54-2,1.49,1.49,0,0,0-.67-.35l-.58-.07c-.1,0-.17-.07-.17-.15s.11-.2.35-.2a9.29,9.29,0,0,1,2.84.54,6.86,6.86,0,0,0,2.14.48c1.6,0,2.57-.84,2.57-2.23a4.29,4.29,0,0,0-.61-2.12A5.06,5.06,0,0,0,123,47.46a.48.48,0,0,0-.25-.1.17.17,0,0,0-.17.16l0,.42v0c0,.16-.09.29-.21.29s-.36-.21-.56-.64a3,3,0,0,0-2.52-2c-.22,0-.34.08-.34.21a1,1,0,0,0,.17.42,3.93,3.93,0,0,1,.28.58.83.83,0,0,1,.08.27c0,.06,0,.09-.14.09a.9.9,0,0,1-.54-.3c-.32-.34-.48-.51-.49-.51l-.41-.64a3.06,3.06,0,0,0-1.28-1.12l-.81-.42a.87.87,0,0,0-.41-.13c-.1,0-.15,0-.15.14a.66.66,0,0,0,.15.37,1.58,1.58,0,0,1,.29.64.17.17,0,0,1-.16.19c-.22,0-.62-.4-1.19-1.18a3.07,3.07,0,0,1-.61-1.8,2.36,2.36,0,0,1,2.38-2.4,5,5,0,0,1,2.4.8l1.54.93a4,4,0,0,0,1.75.58,3.21,3.21,0,0,0,.91-.16,2.34,2.34,0,0,0,.41-.16.24.24,0,0,0,.12-.19c0-.13-.08-.18-.28-.2a9,9,0,0,1-3.17-1.25,7.65,7.65,0,0,0-1.06-.6c-.26-.1-.44-.24-.44-.35s.06-.07.14-.07l.19,0,1.39.51,1.35.48a8.19,8.19,0,0,0,2.15.45,1,1,0,0,0,1-1,2,2,0,0,0-.2-.89c-.2-.38-.45-.71-.56-.71s-.19.13-.19.35v.17l0,.41c0,.43-.23.71-.6.71a1.68,1.68,0,0,1-.53-.1l-2.08-.67a10.42,10.42,0,0,0-3.4-.74,4.12,4.12,0,0,0-4.42,4c0,2.55,1.75,4.15,6.25,5.71s4.93,1.86,4.93,3a1.3,1.3,0,0,1-1.39,1.19,4.06,4.06,0,0,1-.75-.06l-2.18-.52a15.94,15.94,0,0,0-4-.45c-3.18,0-4.71.49-6.36,2a1.15,1.15,0,0,1-1,.43H108l-.5,0a1,1,0,0,0-.91.58l-.51.86a.42.42,0,0,1-.37.19c-.33,0-.51-.22-.82-1a2.38,2.38,0,0,0-.64-1l-.67-.58c-.1-.09-.16-.17-.16-.24a.58.58,0,0,1,.16-.3,3.16,3.16,0,0,0,.28-.45,1,1,0,0,0,.16-.39l0-.29a.22.22,0,0,1,.23-.16c.21,0,.25.15.25.93a2.45,2.45,0,0,0,.25.87l.36.77a.3.3,0,0,0,.29.16c.33,0,.75-.78.86-1.6s.17-.9.31-.9.19.08.46.64a1.59,1.59,0,0,0,.39.48,1,1,0,0,0,.38.23h0c.27,0,.36-.17.42-.78l0-.31-.06-.46,0-.31c0-.2.07-.33.19-.33a.39.39,0,0,1,.24.13l.32.32a.91.91,0,0,0,.65.33c.27,0,.44-.12.44-.32s0-.24-.32-.71l-.22-.42c-.29-.54-.42-.67-.67-.67l-.33,0-.41.16a.83.83,0,0,1-.26.07s-.1,0-.1-.13a2.86,2.86,0,0,1,.55-1.3,7.41,7.41,0,0,0,.54-2.52l.17-1.5c.09-.93.19-1.26.38-1.26s.12,0,.13.07l.09.48v.39c0,.47,0,.84.11.84s.34-.16.53-.43a2.14,2.14,0,0,0,.32-.64,2.89,2.89,0,0,0,.17-.84c0-.74-.32-1.06-1.32-1.34a.41.41,0,0,1-.19-.09l0-.29v-.55l-.07-.38-.12-.32-.17-.35-.25.15a3.37,3.37,0,0,0-1,.81c-.29.37-.39.46-.51.46a.15.15,0,0,1-.16-.14l.13-.55v-.09a2.4,2.4,0,0,0-1.1-1.89l-.23.25-.22.32-.39.45a1.52,1.52,0,0,0-.35.95v.22c0,.25,0,.33-.15.33l-.07,0-.26-.31-.32-.39-.58-.35-.29-.23a2.78,2.78,0,0,0-.32,1.61v.27c0,.29-.09.46-.25.46a.94.94,0,0,1-.39-.16,1,1,0,0,0-.47-.13.86.86,0,0,0-.81.94,2.78,2.78,0,0,0,.51,1.63c.25.41.59.75.74.75a3.71,3.71,0,0,0,.1-.69l-.1-.54,0-.25c0-.2.07-.33.19-.33s.29.2.41.74l.25,1.18.26,1.51a5.64,5.64,0,0,0,.39,1.28,6.06,6.06,0,0,0,.54,1.12c.35.46.4.52.4.62a.15.15,0,0,1-.14.15.71.71,0,0,1-.29-.09,1.12,1.12,0,0,0-.39-.13l-.23,0c-.53,0-.64.43-.64,2.56a13,13,0,0,0,.62,3.95l.67,1.7a2.11,2.11,0,0,1,.16.8c0,2.34-3.17,6.09-6.51,7.7-1.3.62-1.68,1.27-1.79,3a6.76,6.76,0,0,1,1.12-.45c1-.26,1.15-.4,1.28-.83l.13-.42c.06-.18.18-.26.83-.61a1.36,1.36,0,0,0,.52-.41c.16-.28.29-.42.38-.42s.14.07.14.17v0l-.35.92,0,.22A1.76,1.76,0,0,0,101,68.42c0-.17.08-.3.1-.39a3.3,3.3,0,0,1,.32-1l.61-.9c.22-.32.26-.53.26-1.36l0-1,0-.26c0-.16.08-.25.23-.25s.2,0,.21.1l.09.6a.32.32,0,0,0,.32.23c.31,0,.7-.4,1.13-1.12a1.48,1.48,0,0,0,.23-.77,7.41,7.41,0,0,0-.11-1v-.19a.24.24,0,0,1,.25-.26c.08,0,.14,0,.15.06l.23.74c.07.24.24.42.42.42.49,0,1-1,1-2.09,0-.67.12-.91.32-.91a.16.16,0,0,1,.16.08l.13.42c0,.15.14.25.23.25s.24-.14.44-.38a3.52,3.52,0,0,0,.29-.42.74.74,0,0,0,.1-.34c0-.16,0-.2-.29-.4a.8.8,0,0,1-.35-.67,4.14,4.14,0,0,1,.76-2c.53-.9.6-1,.72-1a.25.25,0,0,1,.22.27.68.68,0,0,1-.07.28,1.12,1.12,0,0,0-.13.39.24.24,0,0,0,.25.23,1.28,1.28,0,0,0,.59-.2,8,8,0,0,1,.86-.35c.6-.21,1-.35,1.09-.38a2,2,0,0,1,.66-.1,2.74,2.74,0,0,1,.56.06,3.64,3.64,0,0,0,.74.13.5.5,0,0,0,.51-.5A1.37,1.37,0,0,0,114,54c-.17-.26-.27-.42-.29-.44s-.2-.23-.2-.29l0-.13a.21.21,0,0,1,.18-.13c.25,0,.75.52,1.19,1.25,2.52,4.1,3.73,5.4,5.58,6s2.38,1,2.38,2.14a4.19,4.19,0,0,1-1,2.28c-1.28,1.78-1.73,2.82-1.73,4v.26l.35-.16a3,3,0,0,1,.52-.23l.79-.16a.67.67,0,0,0,.46-.67v-.06l-.06-.71v-.11c0-.4.19-.73.43-.73a.31.31,0,0,1,.24.2l.52,1.09a1.87,1.87,0,0,0,1.12,1"/>
      <path class="cls-37" d="M98.27,46.3l0,.52v.31c0,.52.09.74.28.74s.55-.39.7-.83a3.29,3.29,0,0,0,.16-.87,1.69,1.69,0,0,0-.16-.61c-.15-.35-.3-.51-.47-.51s-.41.35-.46,1.25"/>
      <path class="cls-37" d="M96.05,40.37l.45.45a5,5,0,0,1,1.11,3.28l0,.54-.09,1.5,0,1.26c0,4.19,1.21,7.05,3,7.05a2,2,0,0,0,1.39-1c.08-.14.19-.23.25-.23s.15.08.16.26l.07.71.06.6a5.67,5.67,0,0,0,.1.68,4.09,4.09,0,0,1,.09.63c0,.32-.06.35-.83.46a2.21,2.21,0,0,0-.9.35,3.44,3.44,0,0,0-.83.64l-.35.74a.25.25,0,0,1-.21.16c-.19,0-.43-.28-.79-.9a3.18,3.18,0,0,1-.47-1c0-.11.08-.15.28-.15h.07l.38,0,.29,0,.26,0a.24.24,0,0,0,.19-.23.19.19,0,0,0-.13-.18l-1.44-.61a2.66,2.66,0,0,1-1.06-1.06,3.28,3.28,0,0,1-.59-1.4c0-.22.1-.37.26-.37a.49.49,0,0,1,.23.07,1.11,1.11,0,0,0,.38.13.32.32,0,0,0,.17-.06.24.24,0,0,0,.1-.16c0-.09-.1-.21-.26-.33a3.9,3.9,0,0,1-1.93-2.73c0-.25.06-.37.18-.37l.24,0,.45.06c.18,0,.29-.1.29-.25s-.11-.21-.29-.29c-.8-.4-1-.63-1.51-1.77a6.89,6.89,0,0,0-.93-1.66,2,2,0,0,1,1-.26c.44,0,.71.28,1,1.06.2.49.41.82.53.82s.09-.1.09-.37a3.54,3.54,0,0,0-.14-1,2,2,0,0,1-.09-.71l-.07-.45-.35-.19A1.2,1.2,0,0,1,95.28,43a2.2,2.2,0,0,1,.07-.58s.07-.29.19-.74a6.17,6.17,0,0,0,.23-1.36v-.28l.28.32Z"/>
      <path class="cls-37" d="M99.9,63.48A4.51,4.51,0,0,1,98.36,63a2.9,2.9,0,0,0-1.2-.32,2,2,0,0,0-1.36.55l.28.22.65.45.61.48a.87.87,0,0,0,.54.19c.63,0,1.15-.28,2-1.09"/>
      <path class="cls-37" d="M112.24,69.32a1.88,1.88,0,0,1,.64-.84c.9-.77,1.32-1.34,1.32-1.79V66c0-.41.06-.54.28-.54a.22.22,0,0,1,.2.09l.16.39a.27.27,0,0,0,.27.14c.23,0,.39-.16.78-.82a1.19,1.19,0,0,0,.24-.63,1,1,0,0,0-.08-.36c0-.06-.09-.23-.22-.51a1.68,1.68,0,0,1-.13-.5c0-.21.1-.34.29-.34a.31.31,0,0,1,.23.1l.25.32c.06.07.07.11.17.11a.54.54,0,0,0,.41-.27l.26-.51a.81.81,0,0,0,.09-.29c0-.11-.1-.22-.26-.29l-.44-.19a2.29,2.29,0,0,1-1-2,1.48,1.48,0,0,1,.1-.41l.19-.55a1.46,1.46,0,0,0,.1-.53,1.83,1.83,0,0,0-.32-1,7.34,7.34,0,0,1-.39-.67c-.18-.48-.29-.63-.45-.63a.82.82,0,0,0-.41.15l-.32.19-.45.52-.45.22a1.54,1.54,0,0,0-.52,1.2c0,.69.15,1.07,1.19,2.94a4,4,0,0,1,.65,1.82c0,1.31-1.33,2.38-3.5,2.82-2.6.54-3.16,1-3.46,2.63a2.42,2.42,0,0,1,1.42-.26h.54c.43,0,.49,0,.76-.41a2.44,2.44,0,0,1,1.06-.9l.51-.22.42-.23.13,0c.12,0,.18,0,.18.13a1.13,1.13,0,0,1-.31.54,1.88,1.88,0,0,0-.49,1.06,1.55,1.55,0,0,0,.33,1"/>
      <path class="cls-37" d="M108.2,64.35a3.66,3.66,0,0,1,1,.86c.31.42.35.45.66.45a2.4,2.4,0,0,0,.47-.06l.28-.07c.55-.1.71-.18.71-.32a.34.34,0,0,0-.13-.25l-.38-.32-.36-.32a1.67,1.67,0,0,0-1-.36,2.16,2.16,0,0,0-1.2.39"/>
      <path class="cls-37" d="M118.59,66.08l.19,0,.32,0,.26,0h.17a1,1,0,0,0,.63-.14,2.69,2.69,0,0,0,.61-.74.76.76,0,0,0,.12-.36c0-.22-.19-.35-.54-.35-.88,0-1.42.5-1.76,1.61"/>
      <path class="cls-36" d="M106.63,43.93c0,.3.19.55.35.55s.35-.46.68-1a4.82,4.82,0,0,0,.83-1.82c0-.14-.07-.24-.16-.24h0l-.35.32a3.7,3.7,0,0,1-1.06.58c-.41.14-.53.27-.53.54l0,.26.26.55,0,.28Z"/>
      <path class="cls-36" d="M103.81,41.56a.7.7,0,0,0-.36-.16c-.13,0-.19.07-.19.23v.09a3.49,3.49,0,0,0,.12.54,2.66,2.66,0,0,0,.43.9l.48.81a1.57,1.57,0,0,0,.7.44h0a.16.16,0,0,0,.17-.14l.1-.64.16-.58v-.13a.43.43,0,0,0-.24-.38l-.54-.29-.87-.7Z"/>
      <path class="cls-36" d="M105.93,45.63h-.17l-.38,0-.38-.23a1,1,0,0,0-.45-.13.44.44,0,0,0-.47.49,4.41,4.41,0,0,0,.4,1.34c.12.27.26.61.42,1,.35.89.72,1.28,1.2,1.28s.75-.34,1-1l.36-1.45c.17-.45.59-.64.59-.95a.81.81,0,0,0-.76-.72l-.19,0-.48.33-.7,0Z"/>
      <path class="cls-37" d="M105.9,46.53h-.39a.19.19,0,0,0-.16.09l-.1.16.16.77.13.67c.07.37.13.52.41.52a.63.63,0,0,0,.62-.61l.06-.71c.05-.46.07-.71.07-.73a.26.26,0,0,0-.1-.19.23.23,0,0,0-.16-.07h0l-.51.1Z"/>
      <path class="cls-36" d="M62.18,114.76a4.91,4.91,0,0,1,.41,1.51l.07,1.35c.05,1.35.49,2,1.34,2a1,1,0,0,0,.71-.23l.35-.35.14,0c.23,0,.35.15.35.42l0,.52a8,8,0,0,0,.13,1.47,9.58,9.58,0,0,1,.1,1.29,3.4,3.4,0,0,1-.29,1.56,6.22,6.22,0,0,1,.35,1.94,2.59,2.59,0,0,1-.39,1.56,4.15,4.15,0,0,1,.16,1.09,8.1,8.1,0,0,1-.12,1.22,6.25,6.25,0,0,0-.13,1.53v.08c0,.21-.06.31-.18.31a.58.58,0,0,1-.4-.26c-.2-.25-.32-.34-.47-.34s-.29.12-.62,1.08a4.17,4.17,0,0,1-.77,1.19,2.68,2.68,0,0,0-.58.93c-.1.38-.16.6-.19.67a.26.26,0,0,1-.19.16h0c-.53,0-1.13-1.13-1.75-3.27-.18-.61-.4-.87-.73-.87a.63.63,0,0,0-.56.36l-.19.45a.21.21,0,0,1-.17.13c-.25,0-.64-.47-.89-1.06a4.09,4.09,0,0,1-.31-1.48c0-1,.74-1.75,3-3a2.47,2.47,0,0,0,1.35-2.5A2.44,2.44,0,0,0,60.45,122a2.54,2.54,0,0,0-1.43-.71.5.5,0,0,0-.54.46c0,.3.17.48.59.63s.71.35.71.57a3.06,3.06,0,0,1-.55,1.16,2.84,2.84,0,0,1-1,1.06,2.87,2.87,0,0,1-1.54,2.08,3.26,3.26,0,0,1-.64,1.19l-.67.87a2.65,2.65,0,0,0-.48,1c-.07.49-.12.58-.3.58s-.78-.46-1.3-1.13a1.55,1.55,0,0,1-.42-1.06,1.65,1.65,0,0,1-1.09.39,2.67,2.67,0,0,0-.87.23,2.51,2.51,0,0,1-.74.32c-.13,0-.18-.07-.19-.29l0-.71a5,5,0,0,1,1-2.85,3.24,3.24,0,0,0-1.57-.84c-.19,0-.24,0-.24-.11a1.29,1.29,0,0,1,.31-.59,5.28,5.28,0,0,1,.57-.64,3.21,3.21,0,0,1,1.86-.68,5.84,5.84,0,0,1,1.83.46,2.37,2.37,0,0,0,.77.15c.35,0,.55-.22.55-.63a8.67,8.67,0,0,0-.94-3,6,6,0,0,1-.63-2.11,3.11,3.11,0,0,1,1.18-2.6,1.38,1.38,0,0,0-.71-.19,1.81,1.81,0,0,0-1,.32c-.47.28-.74.52-.74.69s.1.16.26.27.29.24.29.48a3.68,3.68,0,0,1-1.57,2.54,2.81,2.81,0,0,1-1.73,2.27,3.12,3.12,0,0,1-.71,1.48,5.52,5.52,0,0,0-1.18,2.21c-.08.34-.16.49-.27.49a1.65,1.65,0,0,1-.73-.56,5.42,5.42,0,0,1-.51-.61,2.81,2.81,0,0,1-.35-1,1.48,1.48,0,0,1-.46.08l-.47,0h-.32a3.88,3.88,0,0,0-1.83.4.76.76,0,0,1-.28.12c-.2,0-.37-.43-.37-1A5.13,5.13,0,0,1,43,120a4.73,4.73,0,0,1-.61-.57,1,1,0,0,0-.26-.23l-.35-.19c-.12-.07-.19-.15-.19-.21s.47-.62,1-1a2.93,2.93,0,0,1,1.56-.58c.52,0,.8.14,1.46.71.45.4.76.58,1,.58a.61.61,0,0,0,.46-.29.81.81,0,0,0,.16-.48A3.68,3.68,0,0,0,43.76,115a2.16,2.16,0,0,0-2,1.15l-.35.74c-.09.17-.19.26-.31.26s-.31-.09-1-.93l-.83-1a2.6,2.6,0,0,1-.52-.83,1.29,1.29,0,0,0-.16-.41,1.19,1.19,0,0,0-.31-.26,4.14,4.14,0,0,1-1.38-2.66c0-.09,0-.23-.1-.42a5.25,5.25,0,0,1-1.25-3.18,1.21,1.21,0,0,1,.07-.44c-.46-.46-.51-.57-.87-1.8a4.56,4.56,0,0,0-.74-1.66.59.59,0,0,1-.13-.25c0-.17.27-.32.74-.39a2.72,2.72,0,0,1,.64-.08l.64,0,0-.88a6.07,6.07,0,0,1,.17-1.46,4.3,4.3,0,0,0,.1-.67,4.73,4.73,0,0,0-.07-.55,2.55,2.55,0,0,0-.09-.48.81.81,0,0,1-.07-.27c0-.11.07-.16.19-.16a1,1,0,0,1,.42.14,7.72,7.72,0,0,1,1.38.83,4.93,4.93,0,0,1,2,3v.25c-.05.29-.07.45-.07.47a.93.93,0,0,0,.23.52l.35.49a2.42,2.42,0,0,1,.51,1.25c0,.3-.06.43-.57,1.18a2.44,2.44,0,0,0-.55,1.44,4.36,4.36,0,0,0,.64,2c.38.67.81,1,1.23,1,.72,0,1-.63,1.14-2.34.06-.89.15-1.69.26-2.44l0-.43c0-.2-.06-.32-.32-.63l-1-1.12c-.92-1.07-1.2-1.62-1.2-2.39A1.39,1.39,0,0,1,42,100.24l.39,0V100a3.33,3.33,0,0,1,.17-.87c.2-.69.45-1.22.58-1.22a.78.78,0,0,1,.31.16,5.42,5.42,0,0,0,.58.22,4.08,4.08,0,0,1,.64.32,2.85,2.85,0,0,1,.52-1.12c.41-.53.88-1,1-1s.28.14.51.38l.61.65a2,2,0,0,1,.36.6l.13.29.38-.22c.25-.15.42-.25.51-.29l.61-.29a.87.87,0,0,1,.33-.16c.11,0,.17.19.41,1.25a6.88,6.88,0,0,1,.22,1.41A1.6,1.6,0,0,1,51.76,102a4.82,4.82,0,0,1-1.6,3.23,1,1,0,0,0-.37.78c0,2.83,1,3.72,4.54,4.1a23,23,0,0,1,5.44,1.15,11,11,0,0,0,2.68.59c.61,0,.95-.22.95-.61,0-.6-.43-.79-3-1.33-5.94-1.25-8.28-3.27-8.28-7.19A4.77,4.77,0,0,1,57,97.84a7.77,7.77,0,0,1,4.07,1.38c1.61.93,1.94,1.09,2.31,1.09s.6-.28.6-1c0-.45.14-.67.42-.67a1.64,1.64,0,0,1,1,.68,2.29,2.29,0,0,1,.74,1.82,2.2,2.2,0,0,1-1.82,2.25c-.13.14-.23.24-.29.32a2.64,2.64,0,0,1-2.29,1,5.3,5.3,0,0,1-2.84-.93l-1.54-1.09a2.86,2.86,0,0,0-1.62-.67,1,1,0,0,0-1,1,1.45,1.45,0,0,0,1.12,1.39l1.44.45a7.66,7.66,0,0,1,1.38.57,5,5,0,0,1,.72-.07,6,6,0,0,1,2.71.68,4.31,4.31,0,0,0,.58.26l.8.22a4.92,4.92,0,0,1,3.3,4.54,3.49,3.49,0,0,1-3.84,3.67l-.74,0Z"/>
      <path class="cls-37" d="M61.63,133.8l.19-.38.45-.48a2.4,2.4,0,0,0,.59-1.66,3.53,3.53,0,0,0-.17-1,2.51,2.51,0,0,1-.13-.56c0-.2.15-.4.3-.4s.15.06.25.16l.48.55a1.1,1.1,0,0,0,.77.48l0-.45,0-.53a3.7,3.7,0,0,0-.71-2.16,1.56,1.56,0,0,1-.37-.64.22.22,0,0,1,.18-.23.28.28,0,0,1,.13.07c.31.23.47.32.55.32s.3-.38.3-.81a3,3,0,0,0-.66-1.79l-.38-.48a.32.32,0,0,1-.06-.18.25.25,0,0,1,.27-.24.67.67,0,0,1,.4.16.42.42,0,0,0,.24.1c.25,0,.34-.35.34-1.3v-.4l0-.58c0-.67-.09-.79-.38-.79H64c-1.56,0-2.29-1-2.69-3.66-.29-1.93-1-3.3-1.89-3.59-.53-.18-.72-.29-.72-.43s.15-.18.31-.18a2.15,2.15,0,0,1,.6.16,8.91,8.91,0,0,0,3.29.77,2.64,2.64,0,0,0,2.75-2.56,4.37,4.37,0,0,0-1.46-3.11,1.79,1.79,0,0,0-.8-.48H63.3l-.16.06.06.46.13.32,0,.14a.15.15,0,0,1-.16.12.28.28,0,0,1-.23-.13l-.58-.87a3.06,3.06,0,0,0-2.2-1.25c-.26,0-.43.11-.43.3a.74.74,0,0,0,.2.38,1.08,1.08,0,0,1,.29.51l0,.13c0,.07-.08.12-.13.12h0c-.15,0-.23-.07-.93-.87a4.12,4.12,0,0,0-2.36-1.29.37.37,0,0,0-.24.1.3.3,0,0,0-.06.13.54.54,0,0,0,.23.35,1.15,1.15,0,0,1,.35.5c0,.06-.08.12-.18.12s-.59-.27-1.36-.87a3.62,3.62,0,0,1-1.73-2.86,2.09,2.09,0,0,1,2-2.21,4,4,0,0,1,2.15.77l1.57,1.19a4.19,4.19,0,0,0,2.52.83,1.12,1.12,0,0,0,.55-.13c.14-.07.23-.15.23-.21s-.12-.1-.29-.14a3.68,3.68,0,0,1-1.35-.58l-1.6-1.21a11.68,11.68,0,0,0-1.25-.87c-.85-.44-1-.55-1-.64s.08-.1.18-.1a.58.58,0,0,1,.28.07l.84.35A9.39,9.39,0,0,1,60,101c1.71,1.15,2.58,1.52,3.59,1.52a1.59,1.59,0,0,0,1.67-1.61,1.21,1.21,0,0,0-.14-.55l-.16-.32c-.05-.11-.16-.2-.19-.16l-.1.13-.09.67a1.91,1.91,0,0,1-.1.23,1.51,1.51,0,0,1-.22.32.73.73,0,0,1-.59.22c-.5,0-1-.26-2.55-1.22a8,8,0,0,0-4-1.47A4.16,4.16,0,0,0,53,102.9c0,3.21,1.95,4.66,8.1,6,2.34.51,3.37,1.19,3.37,2.23s-.77,1.55-2,1.55a4.85,4.85,0,0,1-.86-.06c-.21-.05-1.31-.34-3.31-.9a16.6,16.6,0,0,0-4.27-.6c-2.42,0-4,.72-5.15,2.27-.13.18-.25.29-.34.29a.58.58,0,0,1-.27-.13l-.44-.36a2.24,2.24,0,0,0-1.15-.43A1,1,0,0,0,46,113a.86.86,0,0,1-.33.22c-.18,0-.51-.4-.76-.93a5.12,5.12,0,0,1-.55-2.18c0-.32.1-.54.24-.54s.2.08.25.25l.25.93c.14.52.43.93.66.93s.27-.14.46-.38a1.49,1.49,0,0,0,.26-.45c.2-.59.25-.68.41-.68s.28.12.41.71a1.88,1.88,0,0,0,.21.55,3.3,3.3,0,0,0,.38.57.47.47,0,0,0,.33.17c.28,0,.54-.47.54-1v-.14l0-.59c0-.24,0-.3.16-.3s.14,0,.23.15a1.61,1.61,0,0,0,.54.45,1,1,0,0,0,.46.16.52.52,0,0,0,.31-.16.36.36,0,0,0,.14-.25c0-.1-.12-.24-.46-.58a4.28,4.28,0,0,1-.64-1.28c-.09-.25-.21-.43-.3-.43l-.21.07-.42.16-.29.13-.11,0a.23.23,0,0,1-.24-.22,2,2,0,0,1,.64-.76,1.19,1.19,0,0,0,.42-.86c0-.54.12-1,.22-1l.1-1.12a11.23,11.23,0,0,1,.48-2.21c0-.12.09-.2.13-.2s.17.25.17.51V103l0,.32c0,.41.06.62.19.62s.3-.2.44-.56l.28-.73A1.59,1.59,0,0,0,51,102a1,1,0,0,0-.89-1.08l-.23,0a.81.81,0,0,1-.23.07c-.17,0-.31-.19-.31-.41l0-.46,0-.64-.13-.67,0-.32-.28.16-.36.28-.51.42-.42.35a.32.32,0,0,1-.23.1c-.25,0-.28-.06-.28-.56v-.13c0-.4-.17-.72-.83-1.49l-.16-.19-.13.22-.35.58-.35.9-.07.57c0,.17-.08.3-.14.3s-.18-.09-.31-.23a2.5,2.5,0,0,0-1.38-.93l-.06.22a6.49,6.49,0,0,0-.19.68l0,.61v.46c0,.17-.07.28-.18.28h0l-.19-.16a.63.63,0,0,0-.39-.1.85.85,0,0,0-1,.84c0,.38.13.67.72,1.57.26.4.56.71.68.71s.15-.21.15-.45l-.06-.39a1.6,1.6,0,0,1-.09-.49c0-.18.05-.28.15-.28.29,0,.58.83.71,2l.13,1.19a3.74,3.74,0,0,0,.38,1.28A3.24,3.24,0,0,0,45,108c.31.22.5.43.5.55a.19.19,0,0,1-.17.19l-.65-.23-.27,0c-.64,0-.85.36-.85,1.46A6.15,6.15,0,0,0,45.41,114l1.48,1.18a3.44,3.44,0,0,1,1.31,2.31c0,.94-1,1.86-2.79,2.5l-1,.38c-.83.3-1.16.83-1.48,2.38a2.63,2.63,0,0,1,.89-.17h.61a.67.67,0,0,0,.75-.62v-.29c0-.09.12-.21.28-.29l.45-.22.36-.29a.23.23,0,0,1,.17-.07.19.19,0,0,1,.18.19.71.71,0,0,1-.07.29,3.2,3.2,0,0,0-.17,1.11,2.69,2.69,0,0,0,.53,1.78,3,3,0,0,1,.09-.42,5.54,5.54,0,0,1,.55-.86,4.32,4.32,0,0,0,.84-2v-.14l-.1-.73a.5.5,0,0,1,.16-.36.35.35,0,0,1,.22-.09c.14,0,.22.08.33.32s.17.29.23.29.33-.3.47-.64a1.79,1.79,0,0,0,.16-.68,1.13,1.13,0,0,0-.09-.41,1,1,0,0,1-.1-.37c0-.08,0-.12.13-.21a.28.28,0,0,1,.16-.07.37.37,0,0,1,.19.07l.29.19a.48.48,0,0,0,.26.1.68.68,0,0,0,.45-.36,2.61,2.61,0,0,0,.45-.91c0-.08,0-.14-.23-.27A2.3,2.3,0,0,1,50.25,115a1.28,1.28,0,0,1,.1-.47l.32-.86c.16-.44.25-.67.26-.68l.09,0c.11,0,.18.09.18.24a1.12,1.12,0,0,1-.08.37,2,2,0,0,0-.14.61.31.31,0,0,0,.34.35,1.32,1.32,0,0,0,.54-.13,6.44,6.44,0,0,1,2.2-.64,1.74,1.74,0,0,1,1.16.42.62.62,0,0,0,.3.13.28.28,0,0,0,.18-.13.31.31,0,0,0,.07-.16.7.7,0,0,0-.2-.42.76.76,0,0,1-.22-.45.16.16,0,0,1,.17-.17c.5,0,1.29,1.59,2,4.12.59,2,.76,2.19,2.66,3.27,1.61.9,2.22,1.8,2.22,3.27a18.47,18.47,0,0,1-1.23,5.7,4,4,0,0,0-.06,3.24,6.67,6.67,0,0,0,.23.73,2.81,2.81,0,0,0,.25.48"/>
      <path class="cls-37" d="M54.2,129.32a5.3,5.3,0,0,1,.6-1.09,3.13,3.13,0,0,0,.71-1.57v-.52c0-.48.09-.7.28-.7a.19.19,0,0,1,.17.1l.16.25a.26.26,0,0,0,.23.13.6.6,0,0,0,.36-.27,2.26,2.26,0,0,0,.37-1.14l0-.36,0-.36c0-.19.08-.27.26-.27s.18,0,.28.28.17.26.24.26a.36.36,0,0,0,.27-.19l.26-.39.19-.29,0-.15c0-.09-.07-.17-.24-.3a2.62,2.62,0,0,1-.9-2.27,9.09,9.09,0,0,0-.16-1.76c0-.06-.21-.52-.57-1.38a7.36,7.36,0,0,1-.39-1.15c-.08-.3-.17-.39-.4-.39a1.6,1.6,0,0,0-1.53,1.73,8.06,8.06,0,0,0,.68,2.6,7.47,7.47,0,0,1,.78,2.66c0,1.18-.47,1.69-2.09,2.27a4,4,0,0,0-3,3.3l.32-.12c.21-.09.36-.14.45-.17l.52-.12a1.17,1.17,0,0,0,.86-.61l.13-.45a.3.3,0,0,1,.19-.22l.29-.13.29-.13.06.13-.12.42a2.46,2.46,0,0,0-.07.74,2.28,2.28,0,0,0,.55,1.63"/>
      <path class="cls-37" d="M37,99.67a1.6,1.6,0,0,1,.07.36,6.08,6.08,0,0,1-.13.83l-.06.65a5.43,5.43,0,0,0,.28,1.68,2.44,2.44,0,0,1,.21.74v.13c0,.13-.08.23-.13.23a.71.71,0,0,1-.32-.2,1.8,1.8,0,0,0-1.19-.48,3.25,3.25,0,0,0-.54.06l.16.36.48,1.18.67,1,.7.48a.89.89,0,0,1,.2.19.48.48,0,0,1,.1.21.12.12,0,0,1-.13.11l-.64,0c-.1,0-.18.07-.18.14a4.74,4.74,0,0,0,.27.95l.32.93.55.51.57.42c.17.13.28.26.28.37a.18.18,0,0,1-.12.18l-.32,0c-.1,0-.16.1-.16.26a3,3,0,0,0,.64,1.25c.5.67.85.89,1.42.89h.48c.23,0,.37.12.37.3s-.1.24-.31.28c-.45.09-.58.18-.58.39a.78.78,0,0,0,.16.35l.26.35c.21.29.45.49.61.49a.78.78,0,0,0,.47-.3,2,2,0,0,1,1-.7c1.12-.28,1.35-.4,1.35-.66a.78.78,0,0,0-.13-.37,3,3,0,0,1-.48-1.57c0-.39-.1-.67-.25-.67s-.16.1-.26.26a1.43,1.43,0,0,1-1.12.67c-1.11,0-2.45-1.74-3.11-4a6.51,6.51,0,0,1-.24-1.73,9.35,9.35,0,0,1,.24-2c.21-.94.33-1.46.35-1.57l0-.43A3.78,3.78,0,0,0,37,99.67"/>
      <path class="cls-37" d="M39.29,104.12a5.79,5.79,0,0,0-.45,2.09c0,.38.12.67.28.67s.12-.06.17-.16l.35-.64c.07-.11.12-.22.23-.39a1.18,1.18,0,0,0,.23-.48,1.43,1.43,0,0,0-.81-1.09"/>
      <path class="cls-37" d="M42.82,118.58l.16.16.25.25c.63.65.72.72,1,.72a3.44,3.44,0,0,0,1.2-.33c.13-.07.22-.15.22-.22s-.12-.17-.32-.35l-.35-.33a1.84,1.84,0,0,0-.85-.46,2.4,2.4,0,0,0-1.33.56"/>
      <path class="cls-37" d="M50.25,124.38a3,3,0,0,1,.65.32,3.94,3.94,0,0,0,.51.32,1.45,1.45,0,0,0,.5.06,1.14,1.14,0,0,0,.39-.06l.68-.25.64-.23c.17-.06.29-.16.29-.25s-.15-.11-.35-.17a3.08,3.08,0,0,1-.49-.16,3,3,0,0,0-1.18-.36,2.17,2.17,0,0,0-1.64.78"/>
      <path class="cls-37" d="M58.36,130.82c.22-.51.37-.6,1.09-.64s1.61-1.52,1.61-2.52c0-.09,0-.18-.08-.18a.52.52,0,0,0-.21.11,4,4,0,0,1-.48.28l-.93.42a1.89,1.89,0,0,0-1,2.53"/>
      <path class="cls-36" d="M44.52,103l.32.45a3,3,0,0,0,.69.5c.1,0,.15-.07.2-.28l.13-.48,0-.53c0-.43-.19-.59-1.06-.81-.22-.06-.31,0-.45-.17a1,1,0,0,0-.39-.19c-.07,0-.13,0-.13.09l0,.14.16.48.45.8Z"/>
      <path class="cls-36" d="M48,103l-.42.74-.16.17h0c-.17,0-.35-.39-.36-.79l-.06-.64c0-.27.21-.38.61-.45a2,2,0,0,0,.64-.19l.51-.36h.06a.14.14,0,0,1,.14.16v0l-.22.55L48,103Z"/>
      <path class="cls-36" d="M47.11,105.15l.51-.26a.73.73,0,0,1,.25-.07c.25,0,.43.19.43.53a4.11,4.11,0,0,1-.68,1.56c-.42.77-.74,1.29-1.07,1.29s-1.11-.74-1.74-2a2.11,2.11,0,0,1-.25-.89c0-.41.18-.62.52-.62a.64.64,0,0,1,.37.1l.28.19a1.5,1.5,0,0,0,.82.26,1.32,1.32,0,0,0,.56-.13"/>
      <path class="cls-37" d="M46.38,105.92l-.36-.06H46c-.21,0-.31.12-.31.35a3.09,3.09,0,0,0,.59,1.39.31.31,0,0,0,.24.13c.21,0,.36-.39.46-1l.1-.48v-.09c0-.2-.06-.27-.22-.27h-.08"/>
      <path class="cls-36" d="M118,114.28a2.76,2.76,0,0,0,2,1.22,4.16,4.16,0,0,0,.87-.13,1.91,1.91,0,0,1,.42-.06c.16,0,.22.06.22.2a2.07,2.07,0,0,1-.16.6,2.71,2.71,0,0,0-.19.58l-.13.67-.32.58-.45.41-.13.14v.43a1.74,1.74,0,0,1-.86,1.65,1.4,1.4,0,0,0-.23.16l-.06.26a9.07,9.07,0,0,1-.32,1.11,7,7,0,0,1-.61.9,5.65,5.65,0,0,0-.8,1.32c-.13.32-.23.41-.44.41s-.63-.4-.69-.86a1.26,1.26,0,0,1-.16.19l-.38.26-.61.41a5.37,5.37,0,0,0-.51.38l-.35.36a.32.32,0,0,1-.19.1c-.16,0-.33-.28-.49-.81l-.32-1.05a3.82,3.82,0,0,1-.13-1,2.2,2.2,0,0,1,.23-1.14,3.94,3.94,0,0,0-1.16.22.89.89,0,0,1-.27.07.18.18,0,0,1-.18-.2,2.19,2.19,0,0,1,.13-.48l.42-1.08a2.72,2.72,0,0,1,2.2-1.62,2.92,2.92,0,0,1,.81.17,1.68,1.68,0,0,0,.49.1.64.64,0,0,0,.67-.61.51.51,0,0,0-.26-.42l-1.15-.35a2.63,2.63,0,0,1-1.41-1.06c-.44-.51-.61-.65-.77-.65s-.19.08-.19.22l0,.43v.2a5.9,5.9,0,0,1-.91,2.91l-.9,1.63a4.09,4.09,0,0,0-.61,2c0,.64.28,1.22.64,1.31l.49.13a.31.31,0,0,1,.15.1.26.26,0,0,1,.1.18.58.58,0,0,1-.16.3c-.06.06-.25.31-.58.74a2.71,2.71,0,0,1-1.57,1.18,3.09,3.09,0,0,1-2.14,1.86l-.13.22a2.59,2.59,0,0,1-1.77,1.29H105a2.49,2.49,0,0,1-1.13,1.63,8.28,8.28,0,0,0-.73.55,1.39,1.39,0,0,0-.16.28c-.15.32-.28.46-.46.46-.34,0-.62-.32-.82-.93a2.94,2.94,0,0,0-.29.19l-.61.41a7.36,7.36,0,0,1-1.12.32A3,3,0,0,0,98,134l-.29.48-.13.05c-.15,0-.34-.22-.41-.5a7.79,7.79,0,0,1-.29-1.8,3.89,3.89,0,0,1,1.54-3v-.28c0-1.77,1.35-3,3.33-3h.32l1.09.07h.1a2.64,2.64,0,0,0,1.73-.71c.78-.64,1-1,1-1.75a4.72,4.72,0,0,0-.31-1.29,5.54,5.54,0,0,1-.23-1.51,5.27,5.27,0,0,1,2.29-3.88c.34-.24.59-.55.59-.73s0-.13-.09-.13a.82.82,0,0,0-.41.25,3.48,3.48,0,0,1-.77.48l-.51.26-.58.23c-.17.06-.26.16-.26.28a.79.79,0,0,0,.07.29.93.93,0,0,1,.07.24.9.9,0,0,1-.17.37l-.44.74a2.73,2.73,0,0,1-1.32,1.28c-.36,1-.88,1.59-1.63,1.7-.61,1.22-1.14,1.64-2.21,1.76a4,4,0,0,1-1,1.47,3.51,3.51,0,0,0-.42.52c-.25.45-.27.48-.39.48a1.54,1.54,0,0,1-.73-.48,1.52,1.52,0,0,1-.29-.39l-.29-.51c-.1-.17-.19-.24-.31-.24h-.21l-.7.1a2.26,2.26,0,0,0-1.28.74l-.39.58a.18.18,0,0,1-.15.09c-.29,0-.46-.63-.46-1.68a3.33,3.33,0,0,1,.45-2l.9-1.25a.87.87,0,0,0,.19-.49.61.61,0,0,0-.16-.41,1.06,1.06,0,0,0-.51-.39l-.67-.09c-.12,0-.17,0-.17-.1a.38.38,0,0,1,.1-.22,3.19,3.19,0,0,1,.8-.71,3.57,3.57,0,0,1,1.85-.67,3.08,3.08,0,0,1,1.68.55l.93.6a.77.77,0,0,0,.45.14c.43,0,.75-.26,1-.84a3,3,0,0,0,.43-1.49,2,2,0,0,0-2.06-2.07,2.78,2.78,0,0,0-1.67.64,1.11,1.11,0,0,0-.32.36l-.25.57c-.06.14-.16.23-.23.23s-.53-.47-.83-1.06a7,7,0,0,1-.45-1.16,5.19,5.19,0,0,1-.27-1.59l0-.87a3.21,3.21,0,0,1-.58-2,3.56,3.56,0,0,1,.22-1.12,2.45,2.45,0,0,1-.35-1.43l0-.4.1-.45.06-.38c-.31-.41-.39-.68-.7-2.08a4.06,4.06,0,0,0-.42-1.35.48.48,0,0,1-.09-.19c0-.19.44-.36,1-.36l.45,0a1.38,1.38,0,0,1-.14-.64,4,4,0,0,1,.23-1.28,2.48,2.48,0,0,0,.21-.78,3.14,3.14,0,0,0-.14-1l-.26-.64a.9.9,0,0,1-.08-.33c0-.07,0-.09.16-.09a5.41,5.41,0,0,1,2.77,1.57,3.44,3.44,0,0,1,1.24,2.92l-.05.7a2.87,2.87,0,0,1,1.25,2.09,1.68,1.68,0,0,1-.64,1.31A2.75,2.75,0,0,0,98,108.84c0,1.71.51,2.62,1.45,2.62s1.46-.89,1.56-2.21l.1-1.22a11.1,11.1,0,0,1,.16-1.15,6.65,6.65,0,0,0,.1-.84c0-.43-.29-1-1.13-2a3.53,3.53,0,0,1-1.2-2.44,1.61,1.61,0,0,1,1.61-1.71,1.16,1.16,0,0,1,.62.18,3.1,3.1,0,0,1,.35-1.45c.25-.61.52-1,.64-1a.33.33,0,0,1,.19.13,4.32,4.32,0,0,0,.42.35l.32.22a3.87,3.87,0,0,1,.29.29,3.1,3.1,0,0,1,1-1.63c.45-.44.62-.58.71-.58s.15.06.23.16l.38.51.54.61a1.68,1.68,0,0,1,.39,1l.32-.19.51-.29a3.3,3.3,0,0,0,.39-.25.36.36,0,0,1,.2-.1s.11.09.15.23l.19.73.42.84a1.64,1.64,0,0,1,.16.82v.2h.21c.63,0,1.18.75,1.18,1.61a4.64,4.64,0,0,1-2.1,3.4,2.55,2.55,0,0,0-.13.85c0,2.55.67,3.09,4.59,3.67a21,21,0,0,1,2.62.55c.13,0,1,.31,2.54.83a6.32,6.32,0,0,0,1.9.42c.47,0,.74-.14.74-.39,0-.44-.64-.83-2.61-1.6l-2.79-1.09c-2.83-1.11-4.17-2.84-4.17-5.39a5.07,5.07,0,0,1,5.2-5.19,10.68,10.68,0,0,1,3.78.8,9.39,9.39,0,0,0,2.35.77c.39,0,.6-.26.66-.83s.18-.67.45-.67.82.36,1.12,1A3.75,3.75,0,0,1,125,101a1.84,1.84,0,0,1-1.57,2,3.12,3.12,0,0,1-2.58,1.33c-1.28,0-1.91-.26-4.09-1.62a2.75,2.75,0,0,0-1.68-.61,1.2,1.2,0,0,0-1.33,1.12c0,.59.47,1,1.54,1.26a1.7,1.7,0,0,1,1.06.54,2.06,2.06,0,0,1,.53-.08,5.67,5.67,0,0,1,3.41,1.49c2,.61,3.73,2.74,3.73,4.53a3.81,3.81,0,0,1-3.63,3.75,12.84,12.84,0,0,1-2.47-.4"/>
      <path class="cls-37" d="M116.79,123.16l.13-.35.13-.45a2.24,2.24,0,0,1,.35-.54,2.56,2.56,0,0,0,.49-1.6,1.32,1.32,0,0,0-.17-.62.76.76,0,0,1-.1-.29.26.26,0,0,1,.07-.15.23.23,0,0,1,.13-.1h0a.57.57,0,0,1,.33.22c.14.17.26.26.33.26s.29-.24.38-.61c0-.19.06-.3.06-.32a3.08,3.08,0,0,0-.29-.9.78.78,0,0,1-.09-.32.19.19,0,0,1,.18-.21.85.85,0,0,1,.42.27.38.38,0,0,0,.25.13c.2,0,.34-.2.49-.7a2.39,2.39,0,0,0,.13-.5c0-.1,0-.15-.11-.15h-.12l-.37,0a2.73,2.73,0,0,1-1.8-.87l-.9-1.09a10.51,10.51,0,0,1-.8-1.06l-.74-.48a.37.37,0,0,1-.19-.26c0-.12.12-.21.3-.21a7.48,7.48,0,0,1,1.65.6,10.08,10.08,0,0,0,3.25.71,2.79,2.79,0,0,0,2.8-2.75,4.09,4.09,0,0,0-1.27-2.64,1.18,1.18,0,0,0-.59-.4.18.18,0,0,0-.18.19.86.86,0,0,0,.1.36.84.84,0,0,1,.06.3c0,.14-.06.23-.15.23s-.42-.33-.59-.91-.63-1.14-1.6-1.63a3.47,3.47,0,0,0-1-.36c-.06,0-.1,0-.1.14a.67.67,0,0,0,.13.38,1.41,1.41,0,0,1,.25.61v0c0,.12-.06.19-.17.19s-.26,0-.72-.77a3.82,3.82,0,0,0-1.45-1.09,1.71,1.71,0,0,0-.54-.13h0c-.12,0-.21.06-.21.13a1.23,1.23,0,0,0,.15.29l0,.18a.16.16,0,0,1-.15.18,3.47,3.47,0,0,1-1.25-1,3.23,3.23,0,0,1-.84-1.92,2.48,2.48,0,0,1,2.48-2.32,1.78,1.78,0,0,1,.82.17l1.12.57,1.32.87a5.21,5.21,0,0,0,2.42.87,3.44,3.44,0,0,0,1-.2c.31-.09.51-.21.51-.32v0l-.12-.07-.7-.06a6.23,6.23,0,0,1-2-.9l-1.47-1-1.32-.54c-.1,0-.16-.11-.16-.17a.14.14,0,0,1,.15-.12l.36.06,1.22.36a8.23,8.23,0,0,1,1.48.67,6.71,6.71,0,0,0,2.85,1,1.21,1.21,0,0,0,1.28-1.2A4.06,4.06,0,0,0,124,100a1.14,1.14,0,0,0-.19-.42c-.06-.08-.12-.13-.16-.13s-.14.1-.14.27v.22l0,.18c0,.59-.24.8-.89.8a8.91,8.91,0,0,1-2.88-.86,9.13,9.13,0,0,0-3.43-.83,4.5,4.5,0,0,0-4.53,4.21c0,1.94,1.29,3.43,3.92,4.51l2.73,1.12c2.25.92,3.08,1.59,3.08,2.47s-.68,1.2-1.74,1.2a7.17,7.17,0,0,1-2.08-.47,19,19,0,0,0-5.67-1.15,6.94,6.94,0,0,0-5.42,2.08c-.18.19-.28.25-.44.25a.93.93,0,0,1-.46-.18,1.55,1.55,0,0,0-.7-.23,1.17,1.17,0,0,0-.77.42l-.32.42a.41.41,0,0,1-.28.19c-.24,0-.65-.39-.91-.87a3.44,3.44,0,0,1-.32-.83,5.1,5.1,0,0,1-.06-.88l0-.59.1-.64c0-.31.08-.5.09-.55a.18.18,0,0,1,.16-.13c.16,0,.24.16.24.51v.34c0,.91.36,1.75.76,1.75s.59-.56.82-1.67c0-.22.13-.35.24-.35s.21.16.31.64a2.68,2.68,0,0,0,.48,1,.52.52,0,0,0,.36.25c.26,0,.43-.39.56-1.31.06-.36.16-.58.28-.58a.15.15,0,0,1,.14.07,4,4,0,0,1,.23.35.84.84,0,0,0,.35.32,1,1,0,0,0,.37.13.47.47,0,0,0,.3-.13.8.8,0,0,0,.22-.26s-.06-.15-.19-.29a3,3,0,0,1-.57-1.06c-.14-.35-.23-.59-.29-.73a.41.41,0,0,0-.16-.22l-.1,0-.19,0s-.26.07-.67.18l-.21,0a.14.14,0,0,1-.15-.15.6.6,0,0,1,.26-.36,4.7,4.7,0,0,0,1.47-3.3,3.4,3.4,0,0,1,.64-1.9c.09-.12.16-.19.2-.19s.2.1.2.28a1.32,1.32,0,0,1-.11.46,1.23,1.23,0,0,0-.07.39v.12l.06.19.36-.13.38-.44a2.37,2.37,0,0,0,.42-1.31,1,1,0,0,0-.26-.74c-.2-.24-.34-.34-.49-.34l-.21,0h-.23c-.21,0-.31-.06-.31-.19l0-.24,0-.35-.19-.8-.16-.39-.1-.32-.23.16-.48.29a1.49,1.49,0,0,0-.38.35c-.46.55-.49.58-.67.58s-.18,0-.18-.12l0-.14a3.56,3.56,0,0,0,.09-.66,3,3,0,0,0-.89-1.87,2.88,2.88,0,0,0-1,2v.39c0,.14,0,.22-.15.22h0a.42.42,0,0,1-.23-.16l-.38-.52s-.2-.17-.52-.41l-.25-.22-.13.25a3.36,3.36,0,0,0-.45,1.54c0,.43,0,.55-.15.55a.4.4,0,0,1-.2-.07c-.49-.27-.53-.29-.74-.29a.94.94,0,0,0-1,1,2.47,2.47,0,0,0,.4,1.06c.29.53.73,1,.92,1s.07,0,.07-.2v-.07l0-.54-.07-.42v-.06c0-.12,0-.18.14-.18.29,0,.55.85.76,2.55a5,5,0,0,0,1.25,3.11c.17.15.26.27.26.34a.12.12,0,0,1-.13.11,1.07,1.07,0,0,1-.42-.16.66.66,0,0,0-.35-.11c-.32,0-.67.38-.74.78l-.29,1.82-.22,2.57a6.81,6.81,0,0,0,.19,1.92,8.19,8.19,0,0,1,.23,1.52,4.14,4.14,0,0,1-3.18,4l-2.05.6a2.82,2.82,0,0,0-2.08,2.79,1.49,1.49,0,0,1,.93-.38l.6-.1a1.45,1.45,0,0,0,.55-.16,1.76,1.76,0,0,0,.35-.35l.55-.61a.91.91,0,0,1,.5-.36.16.16,0,0,1,.14.18A1.18,1.18,0,0,1,98,123a1.49,1.49,0,0,0-.24.83,2,2,0,0,0,.52,1.26,3.33,3.33,0,0,1,.13-.39c.06-.1.22-.33.48-.67a3.39,3.39,0,0,0,.77-1.45c0-.49,0-.65.18-.65s.13,0,.18.3a.4.4,0,0,0,.09.2.37.37,0,0,0,.2.13.72.72,0,0,0,.25-.13A2.33,2.33,0,0,0,101,122a1.92,1.92,0,0,0,.32-.58,2,2,0,0,0,.17-.6v-.42c0-.11,0-.2.11-.2s.24.17.34.36.12.16.21.16h0a.46.46,0,0,0,.28-.13,1.93,1.93,0,0,0,.65-1.2l0-.59-.12-.49v0a.17.17,0,0,1,.16-.18c.14,0,.3.2.52.67.1.22.2.33.29.33s.27-.12.57-.55l.29-.42a.51.51,0,0,0,.1-.32.53.53,0,0,0-.1-.32l-.26-.38a.69.69,0,0,1-.06-.33,3.2,3.2,0,0,1,.48-1.5,7.49,7.49,0,0,0,.42-.8c.05-.14.11-.2.18-.2s.11.08.11.16l0,.36v.51c0,.12.12.16.27.16a1.16,1.16,0,0,0,.34-.06l.8-.29a5.3,5.3,0,0,0,.73-.36,4.37,4.37,0,0,1,2.27-.84,4,4,0,0,1,1.52.46.91.91,0,0,0,.33.1.41.41,0,0,0,.28-.16.43.43,0,0,0,.09-.25.75.75,0,0,0-.13-.39,1.63,1.63,0,0,1-.19-.48.13.13,0,0,1,.14-.14.31.31,0,0,1,.24.17c.1.15.35.58.74,1.28a3.82,3.82,0,0,0,2,1.95l1.41.32c.44.1.55.27.55.82a2.79,2.79,0,0,1-1.28,2.39l-1.16.74a2.1,2.1,0,0,0-.77,1.61,8.53,8.53,0,0,0,.23,1.65l.22-.22.55-.32.48-.48.25-.71.26-.64c.13-.31.27-.51.37-.51s.18.17.18.49v.21a2.4,2.4,0,0,0,.42,1.35"/>
      <path class="cls-37" d="M97.81,132.31c0-1.53.56-2.2,2.76-3.32,4.36-2.2,6.71-4.23,6.71-5.77a6.87,6.87,0,0,0-.39-1.73,5.41,5.41,0,0,1-.28-1.39,3.94,3.94,0,0,1,1.34-2.45l.6-.54a1.66,1.66,0,0,0,.59-1v-.33c0-.32.13-.44.46-.45l.29,0a1.23,1.23,0,0,1,.25-.07.31.31,0,0,1,.26.16l.16.26.23.25c.07.09.14.14.2.14a.87.87,0,0,0,.25-.1.72.72,0,0,1,.38-.12.24.24,0,0,1,.26.27,4.93,4.93,0,0,1-1.16,2.57c-1.23,1.67-1.63,2.56-1.63,3.63a3.48,3.48,0,0,0,.7,2.17.51.51,0,0,1,.13.24.8.8,0,0,1-.22.4l-.2.26c-.25.37-.42.52-.59.52a.35.35,0,0,1-.3-.26l-.13-.35c0-.1-.11-.17-.18-.17s-.08,0-.14.13a.55.55,0,0,0-.13.36v.54a1.12,1.12,0,0,1-.22.64,3.37,3.37,0,0,1-.45.48.54.54,0,0,1-.25.16c-.1,0-.19-.1-.23-.25l-.2-.65a.18.18,0,0,0-.16-.15c-.1,0-.2.18-.22.45a2.35,2.35,0,0,1-.38,1.34l-.45.41a.82.82,0,0,1-.41.24.21.21,0,0,1-.2-.11l-.23-.48a.16.16,0,0,0-.14-.1c-.13,0-.23.26-.27.74a2.48,2.48,0,0,1-1,2.12,1.78,1.78,0,0,0-.8.9,2,2,0,0,1-.39-1.28,1.15,1.15,0,0,1,.14-.61,1.36,1.36,0,0,0,.2-.53.13.13,0,0,0-.11-.14s-.09,0-.16.12a1.53,1.53,0,0,1-.42.32,1.27,1.27,0,0,0-.8,1.09,1.61,1.61,0,0,1-1.47,1.44c-1.09.22-1.15.25-1.54.61l0-.56Z"/>
      <path class="cls-37" d="M95.73,99.25v.8a2.2,2.2,0,0,1-.07.52,3.8,3.8,0,0,0-.13.72,2.61,2.61,0,0,0,.45,1.55,2.39,2.39,0,0,1,.33,1.08c0,.13,0,.2-.14.2A.21.21,0,0,1,96,104l-.25-.36c-.21-.28-.4-.35-.92-.35l-.56,0a7.3,7.3,0,0,1,.39,1.13c.26,1,.29,1.12.86,1.63s.63.58.63.77a.25.25,0,0,1-.22.26l-.22,0h-.12c-.18,0-.34.32-.34.68a2.42,2.42,0,0,0,.21.81,1.29,1.29,0,0,0,.22.38l.32.32a.43.43,0,0,1,.13.33c0,.16-.09.29-.19.29a.66.66,0,0,1-.29-.11.53.53,0,0,0-.23-.06c-.14,0-.21.09-.21.26l0,.48.2.83a1.38,1.38,0,0,0,.35.61,1.47,1.47,0,0,0,.48.39,5.43,5.43,0,0,1,.64.29.31.31,0,0,1,.1.25.23.23,0,0,1-.22.23L96.5,113l-.32,0c-.33,0-.35,0-.35.27a2.2,2.2,0,0,0,.06.5l.13.51c.14.54.31.84.51.84a.62.62,0,0,0,.23-.13,3.89,3.89,0,0,1,2-.68,6.91,6.91,0,0,1,1.55.16,1.21,1.21,0,0,0,.3.08c.08,0,.11-.08.11-.36l.07-.58.13-1,.09-.74v-.42l-.26.23a1.88,1.88,0,0,1-1.45.67c-1.47,0-2.32-1.66-2.32-4.55a30.78,30.78,0,0,1,.51-4.81,7.16,7.16,0,0,0,.1-.89,3.51,3.51,0,0,0-1.84-2.83"/>
      <path class="cls-37" d="M97.91,106.43l.29-.28.29-.26a1.5,1.5,0,0,0,.43-1,1,1,0,0,0-.11-.45c-.11-.24-.32-.46-.45-.46s-.21.26-.25.68l-.07.48-.09.48,0,.48v.32Z"/>
      <path class="cls-37" d="M95.09,119.54c.33.12.4.18.74.58a1.4,1.4,0,0,0,1.28.64,1.63,1.63,0,0,0,.45-.06l.42-.13.32-.1c.15,0,.25-.11.25-.16s-.25-.28-.64-.54a4.67,4.67,0,0,0-.77-.45,1.55,1.55,0,0,0-.73-.2,2.39,2.39,0,0,0-1.32.42"/>
      <path class="cls-37" d="M99.42,128.56a2.11,2.11,0,0,1,2.26-1.88c.62,0,1,.12,1,.33s-.27.39-.87.7l-.93.52a14.11,14.11,0,0,1-1.41.7l0-.37Z"/>
      <path class="cls-37" d="M112.47,120.79c.45-.09.6-.21.83-.22l.58,0a2.32,2.32,0,0,0,.38-.26l.45-.32c.64-.44.67-.46.67-.6s-.26-.27-.8-.27c-1,0-1.62.48-2.11,1.64"/>
      <path class="cls-36" d="M102.78,101.27l.45.29a4.89,4.89,0,0,0,.64.35c.5.21.68.28.68.47a1.13,1.13,0,0,1-.07.36,2.39,2.39,0,0,0-.09.45c0,.44-.31.55-.48.55s-.45-.34-.8-1a8.28,8.28,0,0,1-.52-1.28v-.13c0-.08,0-.12.13-.12"/>
      <path class="cls-36" d="M107.11,102.39l-.73.74a2.21,2.21,0,0,0-.32.71.44.44,0,0,1-.23.09h0a.33.33,0,0,1-.33-.33l0-.54,0-.55v0a.34.34,0,0,1,.28-.36l.69-.19.7-.35a1.18,1.18,0,0,1,.3-.13.18.18,0,0,1,.15.19.47.47,0,0,1-.07.2l-.32.54Z"/>
      <path class="cls-36" d="M103.87,104.57l.48.36a.85.85,0,0,0,.43.1,1.91,1.91,0,0,0,.76-.2l.42-.19a.56.56,0,0,1,.25-.07c.26,0,.46.27.46.61a3.4,3.4,0,0,1-.84,1.67l-.35.74c-.28.4-.47.54-.7.54s-.56-.22-1.13-1.35a4.06,4.06,0,0,1-.58-1.7c0-.34.18-.57.43-.57a.57.57,0,0,1,.37.06"/>
      <path class="cls-37" d="M104.29,106.34l0,.61c0,.27.24.55.46.55s.51-.45.62-1.13a3.14,3.14,0,0,0,.08-.44c0-.24-.08-.3-.39-.3h-.53c-.2,0-.28.15-.28.56"/>
      <path class="cls-36" d="M68.2,91.83h3.14v6.43H75V91.89h9.31v6.37H88V91.89h3.14V75.28H87.56l-.13-.2a2,2,0,0,0-1.73-1A1.9,1.9,0,0,0,84,75.28H81.42a1.87,1.87,0,0,0-1.73-1.17,1.93,1.93,0,0,0-1.82,1.17H75.09a1.87,1.87,0,0,0-1.78-1.17,1.74,1.74,0,0,0-1.71,1.17H68.2V91.83Z"/>
      <polygon class="cls-35" points="69.54 90.61 89.92 90.61 89.92 76.64 69.54 76.64 69.54 90.61 69.54 90.61"/>
      <path class="cls-37" d="M71.66,79.84a1,1,0,1,0,1,1,1,1,0,0,0-1-1"/>
      <path class="cls-38" d="M71.66,80a.84.84,0,1,0,.84.83.84.84,0,0,0-.84-.83Zm0,1.94a1.11,1.11,0,1,1,1.1-1.11,1.11,1.11,0,0,1-1.1,1.11Z"/>
      <path class="cls-37" d="M87.66,79.84a1,1,0,1,0,1,1,1,1,0,0,0-1-1"/>
      <path class="cls-38" d="M87.66,80a.84.84,0,1,0,.84.83.84.84,0,0,0-.84-.83Zm0,1.94a1.11,1.11,0,1,1,1.1-1.11,1.11,1.11,0,0,1-1.1,1.11Z"/>
      <path class="cls-37" d="M71.66,87.43a1,1,0,1,0,0,1.94,1,1,0,0,0,.93-1,1,1,0,0,0-1-1"/>
      <path class="cls-38" d="M71.66,87.56a.85.85,0,0,0-.84.84.86.86,0,0,0,.88.84.82.82,0,0,0,.8-.84.85.85,0,0,0-.84-.84Zm0,1.94a1.12,1.12,0,0,1-1.14-1.1,1.1,1.1,0,1,1,2.2,0,1.08,1.08,0,0,1-1.06,1.1Z"/>
      <path class="cls-37" d="M87.66,87.43a1,1,0,0,0,0,1.94,1,1,0,0,0,0-1.94"/>
      <path class="cls-38" d="M87.66,87.56a.84.84,0,1,0,.84.84.85.85,0,0,0-.84-.84Zm0,1.94a1.1,1.1,0,1,1,1.1-1.1,1.1,1.1,0,0,1-1.1,1.1Z"/>
      <path class="cls-37" d="M74.7,84.49a6.13,6.13,0,0,0,5,2.46c1.9,0,3.21-.68,4.74-2.46a6.45,6.45,0,0,0-9.76,0"/>
      <path class="cls-36" d="M75.67,84.49A6,6,0,0,1,79.58,83a5.74,5.74,0,0,1,3.88,1.52,5,5,0,0,1-3.9,1.65,5.42,5.42,0,0,1-3.89-1.68"/>
      <path class="cls-37" d="M77.32,84.17a4,4,0,0,0,2.21.71,4,4,0,0,0,2.35-.71,5.3,5.3,0,0,0-2.32-.55,4.62,4.62,0,0,0-2.24.55"/>
      <polygon class="cls-36" points="69.26 78.07 90.21 78.07 90.21 77.36 69.26 77.36 69.26 78.07 69.26 78.07"/>
      <path class="cls-38" d="M69.3,78H90.17V77.4H69.3V78Zm21,.09h-21v-.8h21v.8Z"/>
      <path class="cls-37" d="M72.47,76.44v2a.83.83,0,0,0,.86.84.78.78,0,0,0,.89-.84v-2c0-.76-.31-1.23-.81-1.23a1.07,1.07,0,0,0-.39.1,1.86,1.86,0,0,0-.23.13.88.88,0,0,0-.19.26,1,1,0,0,0-.13.36"/>
      <path class="cls-37" d="M78.77,78.09v.35a.84.84,0,0,0,.86.84.78.78,0,0,0,.89-.84v-2c0-.75-.31-1.23-.8-1.23s-1,.47-1,1.2"/>
      <path class="cls-37" d="M84.88,76.44v2a.83.83,0,0,0,.86.84.78.78,0,0,0,.89-.84v-2c0-.76-.31-1.23-.81-1.23a1.07,1.07,0,0,0-.39.1,1.86,1.86,0,0,0-.23.13.88.88,0,0,0-.19.26,1.21,1.21,0,0,0-.13.36"/>
      <polygon class="cls-37" points="72.02 95.8 73.92 95.8 73.92 93.34 72.02 93.34 72.02 95.8 72.02 95.8"/>
      <polygon class="cls-37" points="72.02 97.13 73.92 97.13 73.92 96.35 72.02 96.35 72.02 97.13 72.02 97.13"/>
      <polygon class="cls-37" points="85.01 95.8 86.92 95.8 86.92 93.34 85.01 93.34 85.01 95.8 85.01 95.8"/>
      <polygon class="cls-37" points="85.01 97.13 86.92 97.13 86.92 96.35 85.01 96.35 85.01 97.13 85.01 97.13"/>
      <path class="cls-34" d="M189.73,35.59v1.47h-1c-1.43,0-3.83,0-3.83,4.46V59.84c0,11.2-4.87,16.64-14.91,16.64-11.32,0-16.6-4.51-16.6-14.21V41.52c0-4.46-2.42-4.46-4.55-4.46h-.45V35.59h16.94v1.47h-.46c-2.1,0-4.72,0-4.72,4.46V61.34c0,8.55,3.57,12.7,10.91,12.7C178.24,74,182,69.57,182,61.11V41.52c0-4.46-2.47-4.46-4.27-4.46h-.9V35.59h12.89"/>
      <path class="cls-34" d="M208,74.15v1.46H193.74V74.15h.56c4.69,0,5.29-3.58,5.29-7.6v-24c0-3.83-2.22-5.44-5.35-5.44h-.5V35.59H205L229.3,65.41V42.74c0-5.13-3.58-5.68-5.11-5.68h-1V35.59h14.44v1.47H237c-2.53,0-5.23.58-5.23,7.59V75.81h-2.13L202,42.44V66.53c0,4,.57,7.62,5.42,7.62"/>
      <path class="cls-34" d="M284.69,67.13l8.79-24.6c1.58-4.19.57-5.47-3.07-5.47h-.74V35.59h11.39v1.47h-.25c-1.23,0-2.69.37-3.77,3.12L283.7,75.77h-2.54L266.68,40.51c-1.15-2.94-2.5-3.45-4.93-3.45h-.34V35.59H278v1.47h-1.08c-2.83,0-3.38,1.77-2.57,3.93l10.38,26.14Z"/>
      <path class="cls-34" d="M351.47,37.48V55.19h3.43c6.23,0,9-2.77,9-9.27,0-5.28-3.4-8.7-8.53-8.7a29.56,29.56,0,0,0-3.87.26Zm6.15-1.89c8.86,0,13.26,3.27,13.26,10,0,5.69-4.44,8.58-7.95,10l-.25.11,9.81,14.94c1.57,2.42,2.85,3.36,5.56,3.51v1.49H367.8L355.89,56.83h-4.43V69.28c0,4.52,2,4.87,4.85,4.87h.79v1.46H339.7V74.15h.79c1.95,0,4.22-.88,4.22-3.36V41.69c0-4.63-2.75-4.63-4.22-4.63h-.79V35.59h17.92"/>
      <path class="cls-34" d="M399.2,68c0-4.88-4.18-6.8-8.08-8.83-4.57-2.38-9.83-4.83-9.83-12.22,0-7.16,5.44-11.77,13.22-11.77a46.53,46.53,0,0,1,8.37.95l.55,7.79-1.5.21c-.7-4.09-2.82-7.24-7.43-7.24-4.33,0-7.53,2.66-7.53,7.45,0,4.51,4.16,6.36,8,8.32,4.76,2.39,10.21,4.87,10.21,12.33,0,8.25-7.35,11.94-14.16,11.94a20.14,20.14,0,0,1-9.48-2.25L380.63,66l1.45-.26c1.11,5.76,4.76,9.09,9.57,9.09,4.61,0,7.55-2.81,7.55-6.84"/>
      <path class="cls-34" d="M427.75,35.59v1.47h-.56c-2.29,0-4.39.43-4.39,3.53v30c0,3.11,2.1,3.54,4.39,3.54h.56v1.46H411V74.15h.57c2.28,0,4.38-.43,4.38-3.54v-30c0-3.1-2.1-3.53-4.38-3.53H411V35.59h16.72"/>
      <path class="cls-34" d="M259.09,35.59v1.47h-.56c-2.28,0-4.39.43-4.39,3.53v30c0,3.11,2.11,3.54,4.39,3.54h.56v1.46H242.38V74.15h.56c2.28,0,4.39-.43,4.39-3.54v-30c0-3.1-2.11-3.53-4.39-3.53h-.56V35.59h16.71"/>
      <path class="cls-34" d="M592.21,93.39l.14,10.62-1.7.43c-.38-4.64-1.43-8.43-8.86-8.43h-10v19.64h8.57c4.2,0,5.34-2.36,5.82-6.41h1.7v16.42l-1.7,0c-.26-3.93-1.19-7-5.79-7h-8.6V136c0,5,4.32,5,8.89,5,8.2,0,12-.51,14.3-8.81l1.68.37-2.3,11.07H557.12v-1.84h.71c2.86,0,5.5-.53,5.5-4.43V99.66c0-3.9-2.64-4.44-5.5-4.44h-.71V93.39h35.09"/>
      <path class="cls-34" d="M381.43,95.75V118h4.29c7.81,0,11.26-3.48,11.26-11.64,0-6.62-4.27-10.9-10.69-10.9a33.72,33.72,0,0,0-4.86.32Zm7.71-2.36c11.11,0,16.63,4.09,16.63,12.51,0,7.14-5.57,10.75-10,12.53l-.32.14,12.31,18.74c2,3,3.58,4.22,7,4.4v1.88H401.91L387,120h-5.54v15.64c0,5.66,2.51,6.1,6.06,6.1h1v1.84H366.67v-1.84h1c2.44,0,5.29-1.1,5.29-4.21V101c0-5.82-3.44-5.82-5.29-5.82h-1V93.39h22.47"/>
      <path class="cls-34" d="M438.79,93.38v1.83h-.71c-2.86,0-5.5.54-5.5,4.44v37.66c0,3.9,2.64,4.43,5.5,4.43h.71v1.84h-21v-1.84h.71c2.86,0,5.5-.53,5.5-4.43V99.65c0-3.9-2.64-4.44-5.5-4.44h-.71V93.38h21"/>
      <path class="cls-34" d="M436.44,35.59h26.48c1.33,0,3-.33,3.31-2.07h1.29L466.5,44h-1.42c-.09-2.41-.44-5.92-4.31-5.92h-8.08v30.9c0,4.82,2.32,5.22,4.9,5.22h.84v1.46H440.2V74.15H441c3,0,4.9-.25,4.9-5.1V38h-8.17c-4.16,0-4.56,1.83-5.37,5.87H431l.92-10.3h1.18c.53,1.66,2,2,3.38,2"/>
      <path class="cls-34" d="M508.45,35.59v1.49c-2.3.12-3.69,1.7-4.73,3.17L493.56,55.91V68.7c0,5.08,1.85,5.45,4.89,5.45h.85v1.46H481.06V74.15h.85c3.17,0,4.89-.79,4.89-5V56.86l-11-15.76c-1.68-2.44-2.95-4-5.62-4h-.34V35.59h16.53v1.47h-.51c-3.17,0-3.4,1.68-2.05,3.6l8.55,13.25,7.56-12c1.73-2.61,2.23-4.89-2.05-4.89h-.66V35.59Z"/>
      <path class="cls-34" d="M528,53.86c0,9.89,4.37,20.53,14,20.53,8.78,0,13-6.09,13-18.61,0-9.19-4.91-19-14-19-12.06,0-13,13-13,17Zm-7.43,2c0-11.87,9-21.17,20.54-21.17,12.56,0,21.32,8.14,21.32,19.78,0,12.74-8.84,22-21,22s-20.82-8.65-20.82-20.59"/>
      <path class="cls-34" d="M584.86,75.61V74.15h-.51c-2.64,0-5.62,0-5.62-3.54V55.78h7.11c4.11,0,4.69,3.18,4.72,5.68h1.31V48.65h-1.32c0,2.09-.5,4.7-3.82,4.7h-8V37.69h9.13c4.78,0,5.57,3.28,5.88,6.72l1.34-.34L595,35.6H567v1.46h.57c2.27,0,4.38.42,4.38,3.53v30c0,3.11-2.11,3.54-4.38,3.54H567v1.46Z"/>
      <path class="cls-34" d="M151.6,118.44c0-7.46,3-14.79,8.24-19.46a27.07,27.07,0,0,1,18.35-6.77,38.55,38.55,0,0,1,17,3.61l.54,11.62-1.65.21c-1.9-6.74-5.05-12.91-15.68-12.91-10.93,0-17.72,8.65-17.72,22.58,0,12.4,5.49,24.13,18.79,24.13,7.47,0,12.8-2.8,16.82-8l1.31,2.46c-4.53,5.85-11.52,9-19.49,9-16.19,0-26.51-9.56-26.51-26.48"/>
      <path class="cls-34" d="M259.85,103.09l-1.67,31c-.3,6.86,1.83,7.47,6.44,7.64h.43v1.82H248.13v-1.82h.64c5.71-.23,6-3.4,6.32-8l2-31.74c.25-4.33-2.12-6.79-6.11-6.79h-.58V93.36h14.21c.17.4,17.05,38,17.05,38l16.13-38.05h13.93V95.2h-.27c-5.65,0-6.65,1.75-6.22,8.85l1.94,33.3c.3,3.89,2.34,4.24,6.18,4.39v1.81H292.49v-1.81h.14c3.39-.21,5.84-.35,5.84-3.76l-.07-3.6-1.53-32.1-17.36,41.66H278c-.17-.4-18.15-40.84-18.15-40.84"/>
      <path class="cls-34" d="M461.43,95.77v39.42c0,5.32,2.25,6.18,7.64,6.18,12.68,0,18.45-10.92,18.45-21.62,0-16.64-6.86-24.22-21-24.22-1.25,0-3.9.11-5.11.24Zm-14.74,47.81v-1.84h.71c2.86,0,5.51-.54,5.51-4.44V99.65c0-3.9-2.65-4.44-5.51-4.44h-.71V93.38l22.45,0c8.34,0,15.33,2.09,20.21,6.64s7.35,10.82,7.35,18.35A26.44,26.44,0,0,1,489,137c-4.91,4.87-11.79,6.53-18.75,6.53l-23.58,0Z"/>
      <path class="cls-34" d="M539.43,141V128.69c0-2.69-2-4.12-5.67-4.12h-.59v-1.79h19.3v1.79h-.59c-2.69,0-4.12,1.43-4.12,4.12v13.7A58.88,58.88,0,0,1,530.1,145c-16.57,0-27.28-10.74-27.28-27.36,0-17.68,14.13-25.74,27.42-25.74a54.07,54.07,0,0,1,16,2.49l.8,12-1.68.11c-2.09-8.63-5.93-12-14.58-12-11.66,0-18.73,8.6-18.73,22.44,0,12.71,6,25.31,19.3,25.31a20.71,20.71,0,0,0,8.13-1.25"/>
      <path class="cls-34" d="M345.49,116.25c6.32.46,9.68,1.85,12.51,4.75a11.6,11.6,0,0,1,3.35,8.37c0,7.88-7.23,14.19-16.62,14.19H320.14v-1.82h1c2.44,0,5.29-1.16,5.29-4.28V101c0-5.81-3.44-5.81-5.29-5.81h-1V93.39h22.29c10.46,0,16.22,3.79,16.22,11,0,8-7,10.89-13.16,11.89m-10.29-21v20.16H339c6.92,0,10.73-3.36,10.73-9.77,0-7.1-3.35-10.39-10-10.39Zm0,22.35v17.67c0,4.9,1.57,6.31,6.66,6.31,6.11,0,10.73-5,10.73-11.89,0-7.71-4.7-12.09-12.56-12.09Z"/>
      <path class="cls-34" d="M219,103.61l7,19.56H212l7-19.56Zm.87-10.24L203.93,136.7c-1.18,3.08-3.27,5-6.36,5h-.17v1.89h15.27v-1.89H212c-3.67,0-6.18-1.17-4.58-5.92l3.65-10.12h15.82l4,11c1.13,3.48-.35,5.06-4.13,5.06h-.44v1.86h19.44v-1.86h-.15c-2.59,0-4.36-1.35-5.58-4.8L223.65,93.38Z"/>
      <path class="cls-34" d="M331.73,35.59l.11,8.46-1.35.35c-.3-3.7-1.14-6.72-7.06-6.72h-7.95V53.32h6.82c3.35,0,4.26-1.87,4.64-5.1h1.36V61.3l-1.36,0c-.21-3.12-.94-5.55-4.61-5.55h-6.85V69.5c0,4,3.44,4,7.08,4,6.54,0,9.56-.41,11.39-7l1.34.3-1.83,8.82H303.77V74.13h.56c2.28,0,4.39-.43,4.39-3.54v-30c0-3.11-2.11-3.54-4.39-3.54h-.56V35.59h28"/>
    </g>
  </g>
</svg>
